<?xml version="1.0" encoding="UTF-8"?>
<svg width="2075px" height="817px" viewBox="0 0 2075 817" xmlns="http://www.w3.org/2000/svg" xmlns:xlink="http://www.w3.org/1999/xlink" version="1.1">
 <!-- Generated by Pixelmator Pro 1.5.2 -->
 <g id="group">
  <path id="Path" d="M770.8 436.2 C757.7 441.6 746 448.2 733.5 451.1 713.4 455.8 696.8 439.7 700.2 419.4 705.3 389.1 711.6 358.9 717.5 328.7 718.5 328.6 719.6 328.6 720.6 328.5 725.4 348.3 730.2 368.1 735.6 390.3 745.8 370 762 355.4 764.8 333 767.7 309.8 782.7 294.8 802.7 292.1 826.7 288.9 848.4 311.8 840.8 334.7 835.9 349.5 837.8 363.1 839.4 377.4 844.5 421 849.1 464.6 842.6 508.4 834.9 560.8 804.4 591.4 752.2 600.8 724.9 605.7 697.6 605.8 670.2 602.8 665.5 602.3 661 600.4 654.9 598.7 687.4 586.6 716.6 572.2 744.1 554.4 764.3 541.3 775.1 523.3 773.6 498.6 772.7 484.1 772.4 469.6 771.8 455.1 771.5 448.4 771 441.7 770.8 436.2 Z" fill="#2d4051" fill-opacity="1" stroke="none"/>
  <path id="Path-1" d="M330.9 223.8 C334.6 249.6 340.4 275.4 341.4 301.3 343.1 347.8 341.9 394.4 341.9 440.9 341.9 453.8 341.8 454.5 354.7 455.1 394.7 457.1 434.8 458.6 474.9 460.1 485.6 460.5 496.3 460.2 506.9 460.2 507 461.1 507.2 462.1 507.3 463 505.1 464.4 502.9 465.9 500.6 467 461.3 486.2 422.2 506.2 379.3 516.2 365.3 519.5 350.6 521.3 336.3 521.1 298.8 520.5 273.9 497.2 274.1 459.8 274.2 431.3 278.4 402.7 282.9 374.5 290.9 324.1 306.6 275.7 325.7 228.5 326.4 226.8 327.3 225.2 328.1 223.6 328.9 223.7 329.9 223.7 330.9 223.8 Z" fill="#2d4051" fill-opacity="1" stroke="none"/>
  <path id="Path-2" d="M1729.6 378.4 C1713 379.4 1697.4 381 1681.8 381 1666.8 381 1651.5 380.5 1636.7 378.2 1629 377 1620.9 372.5 1615 367.2 1604.2 357.7 1605.6 342.3 1617.1 333.5 1627.2 325.9 1637.9 319 1648 311.5 1660.3 302.4 1672.4 292.9 1686.3 284.1 1680.2 296.9 1674.1 309.8 1667.7 323.2 1669.6 322.9 1671.8 322.7 1673.9 322.2 1691.6 318.1 1709.1 313.3 1727 310 1782 299.8 1807.3 346.5 1800.4 386.6 1795 418 1777 442.1 1753.2 461.8 1735.2 476.7 1715.5 489.6 1696.5 503.4 1689.8 508.3 1683.1 507.9 1677.1 502.4 1670.6 496.5 1673.3 490.2 1677.2 484.1 1689.3 465.1 1702 446.6 1713 427 1719.5 415.6 1723.4 402.8 1728.1 390.4 1729.3 387.2 1729 383.4 1729.6 378.4 Z" fill="#2d4051" fill-opacity="1" stroke="none"/>
  <path id="Path-3" d="M1102.5 422.1 C1090.1 437 1078.3 451.6 1065.9 465.7 1057.3 475.6 1048.9 477.5 1039.7 473.2 1030.6 469 1025.3 459.3 1028.4 447.4 1035.7 419.5 1044.3 391.9 1052.4 364.2 1053.5 364.3 1054.7 364.4 1055.8 364.5 1057.3 372 1058.7 379.5 1060.6 389.2 1065.3 381.7 1069 375.9 1072.7 370.1 1076 364.9 1079.4 359.7 1082.5 354.4 1089.9 342.1 1099.8 333.7 1115 336.6 1130.4 339.6 1138.3 350.6 1141.4 365.4 1143.3 374.3 1145 383.3 1147.2 393.9 1168.5 374.4 1176.4 348.4 1191.8 324.2 1192.8 358.3 1194.2 389.9 1177.9 418.9 1167 438.2 1150.8 446.6 1131.4 443.5 1121 441.8 1115.8 438 1102.5 422.1 Z" fill="#2d4051" fill-opacity="1" stroke="none"/>
  <path id="Path-4" d="M520.4 440.8 C522.1 433.2 522.9 426.3 525.2 420.1 536.9 389.2 556.2 363.9 586.3 349.4 603.9 340.9 622.8 344.3 639.5 354.3 657.4 365.1 662 382.1 658.2 401.6 651.2 437.6 634.1 466.2 599.7 483.2 573.5 496.1 538.4 485.8 525.7 459.5 522.9 453.6 522 446.8 520.4 440.8 Z M547.5 421.1 C547.3 439.8 555.9 448.5 569.3 444.8 577.6 442.5 586.1 438.4 592.9 433.1 607.1 422 614.9 405.9 620.6 389.3 621.8 385.7 619.2 378.9 616.1 376 606 366.6 592.9 363.8 579.5 363.2 577.7 363.1 575.2 364.3 574 365.7 560 382.8 549.3 401.5 547.5 421.1 Z" fill="#2d4051" fill-opacity="1" stroke="none"/>
  <path id="Path-5" d="M1528.2 367.4 C1544.6 366.8 1559.6 380.3 1576.8 371.9 1577.8 380.9 1573.9 387.2 1563.7 389 1551.6 391.1 1539.2 392.1 1527 392.8 1521.5 393.1 1518.7 394.6 1517.3 400.1 1515.5 407.2 1512.7 414.1 1510.7 421.2 1508.3 429.3 1503.1 434.2 1494.7 433.8 1486.5 433.4 1482.2 427.9 1481 420 1480.3 414.8 1479.5 409.6 1479.1 404.4 1478.5 396.3 1479.2 388.5 1470.6 382.7 1463.8 378.1 1464.9 368.1 1472 362.6 1477.6 358.2 1478.4 353 1479.2 346.7 1484.8 301.6 1498.9 259.2 1521.3 219.6 1521.6 219.1 1522.2 218.9 1523.3 218.2 1532.3 254.1 1534.1 290.4 1532.4 330 1550 318.9 1565.5 309.2 1582.7 298.4 1578.1 306.3 1575.1 314.2 1569.8 319.9 1558.5 332 1545.9 343 1534.1 354.6 1531.1 357.5 1528.8 361.3 1526.2 364.6 1526.8 365.5 1527.5 366.5 1528.2 367.4 Z" fill="#2d4051" fill-opacity="1" stroke="none"/>
  <path id="Path-6" d="M1290.3 349.3 C1288.2 350.9 1286 352.5 1282.7 355 1288.2 356.3 1292.6 357 1296.8 358.4 1312.1 363.4 1320.2 376.4 1316.9 392.2 1311.7 416.5 1299.9 436.2 1276.5 447.3 1263.3 453.6 1248.7 452 1237.7 442.7 1227.5 434 1222.2 417.9 1229 404.9 1235.9 391.5 1246.2 379.8 1255.2 367.4 1263.8 355.6 1277 351.9 1290.3 349.3 Z M1266.5 372.5 C1262.3 383.8 1257.4 395.2 1254.1 407.1 1252.1 414.1 1256.8 417.5 1263 413.6 1268.8 409.9 1274.2 404.9 1278.6 399.6 1291.5 383.6 1289.4 378.2 1266.5 372.5 Z" fill="#2d4051" fill-opacity="1" stroke="none"/>
  <path id="Path-7" d="M969.7 242.9 C969.8 268.8 948 288.9 924.6 284.4 908.9 281.4 899 266.2 904.4 251.2 907.8 241.8 912.8 232.7 918.6 224.5 927.1 212.6 939 208.7 949.9 212.4 961.8 216.5 969.6 228.6 969.7 242.9 Z" fill="#2d4051" fill-opacity="1" stroke="none"/>
  <path id="Path-8" d="M1366.5 343.1 C1367.4 344.6 1368.4 346.2 1369.3 347.7 1370.1 348.9 1371 350.1 1372.2 351.9 1390.8 334.7 1411.7 329.5 1436.7 338.3 1433.9 340.2 1432.1 341.6 1430 342.7 1406.2 355.1 1394 375.4 1389.6 401.2 1387.3 414.7 1382.6 420.5 1373.1 421.4 1361.9 422.5 1352.3 414.7 1353.5 402.3 1355.3 382.3 1359.4 362.6 1362.5 342.7 1363.9 342.8 1365.2 343 1366.5 343.1 Z" fill="#2d4051" fill-opacity="1" stroke="none"/>
  <path id="Path-9" d="M933.7 321.2 C945.1 337 950.9 353.9 954.8 371.8 958.6 389 955.6 405.5 951.2 421.9 949.6 428 947.4 434.1 939.6 434.3 932.2 434.5 931.4 428.3 929.2 423.3 914.2 388.9 918 355.4 933.7 321.2 Z" fill="#2d4051" fill-opacity="1" stroke="none"/>
 </g>
</svg>
