<svg height="817" viewBox="0 0 2075 817" width="2075" xmlns="http://www.w3.org/2000/svg"><g fill="#2d4051"><path d="m770.8 332.2c-13.1 5.4-24.8 12-37.3 14.9-20.1 4.7-36.7-11.4-33.3-31.7 5.1-30.3 11.4-60.5 17.3-90.7 1-.1 2.1-.1 3.1-.2 4.8 19.8 9.6 39.6 15 61.8 10.2-20.3 26.4-34.9 29.2-57.3 2.9-23.2 17.9-38.2 37.9-40.9 24-3.2 45.7 19.7 38.1 42.6-4.9 14.8-3 28.4-1.4 42.7 5.1 43.6 9.7 87.2 3.2 131-7.7 52.4-38.2 83-90.4 92.4-27.3 4.9-54.6 5-82 2-4.7-.5-9.2-2.4-15.3-4.1 32.5-12.1 61.7-26.5 89.2-44.3 20.2-13.1 31-31.1 29.5-55.8-.9-14.5-1.2-29-1.8-43.5-.3-6.7-.8-13.4-1-18.9z"/><path d="m330.9 119.8c3.7 25.8 9.5 51.6 10.5 77.5 1.7 46.5.5 93.1.5 139.6 0 12.9-.1 13.6 12.8 14.2 40 2 80.1 3.5 120.2 5 10.7.4 21.4.1 32 .1.1.9.3 1.9.4 2.8-2.2 1.4-4.4 2.9-6.7 4-39.3 19.2-78.4 39.2-121.3 49.2-14 3.3-28.7 5.1-43 4.9-37.5-.6-62.4-23.9-62.2-61.3.1-28.5 4.3-57.1 8.8-85.3 8-50.4 23.7-98.8 42.8-146 .7-1.7 1.6-3.3 2.4-4.9.8.1 1.8.1 2.8.2z"/><path d="m1729.6 274.4c-16.6 1-32.2 2.6-47.8 2.6-15 0-30.3-.5-45.1-2.8-7.7-1.2-15.8-5.7-21.7-11-10.8-9.5-9.4-24.9 2.1-33.7 10.1-7.6 20.8-14.5 30.9-22 12.3-9.1 24.4-18.6 38.3-27.4-6.1 12.8-12.2 25.7-18.6 39.1 1.9-.3 4.1-.5 6.2-1 17.7-4.1 35.2-8.9 53.1-12.2 55-10.2 80.3 36.5 73.4 76.6-5.4 31.4-23.4 55.5-47.2 75.2-18 14.9-37.7 27.8-56.7 41.6-6.7 4.9-13.4 4.5-19.4-1-6.5-5.9-3.8-12.2.1-18.3 12.1-19 24.8-37.5 35.8-57.1 6.5-11.4 10.4-24.2 15.1-36.6 1.2-3.2.9-7 1.5-12z"/><path d="m1102.5 318.1c-12.4 14.9-24.2 29.5-36.6 43.6-8.6 9.9-17 11.8-26.2 7.5-9.1-4.2-14.4-13.9-11.3-25.8 7.3-27.9 15.9-55.5 24-83.2 1.1.1 2.3.2 3.4.3 1.5 7.5 2.9 15 4.8 24.7 4.7-7.5 8.4-13.3 12.1-19.1 3.3-5.2 6.7-10.4 9.8-15.7 7.4-12.3 17.3-20.7 32.5-17.8 15.4 3 23.3 14 26.4 28.8 1.9 8.9 3.6 17.9 5.8 28.5 21.3-19.5 29.2-45.5 44.6-69.7 1 34.1 2.4 65.7-13.9 94.7-10.9 19.3-27.1 27.7-46.5 24.6-10.4-1.7-15.6-5.5-28.9-21.4z"/><path d="m520.4 336.8c1.7-7.6 2.5-14.5 4.8-20.7 11.7-30.9 31-56.2 61.1-70.7 17.6-8.5 36.5-5.1 53.2 4.9 17.9 10.8 22.5 27.8 18.7 47.3-7 36-24.1 64.6-58.5 81.6-26.2 12.9-61.3 2.6-74-23.7-2.8-5.9-3.7-12.7-5.3-18.7zm27.1-19.7c-.2 18.7 8.4 27.4 21.8 23.7 8.3-2.3 16.8-6.4 23.6-11.7 14.2-11.1 22-27.2 27.7-43.8 1.2-3.6-1.4-10.4-4.5-13.3-10.1-9.4-23.2-12.2-36.6-12.8-1.8-.1-4.3 1.1-5.5 2.5-14 17.1-24.7 35.8-26.5 55.4z"/><path d="m1528.2 263.4c16.4-.6 31.4 12.9 48.6 4.5 1 9-2.9 15.3-13.1 17.1-12.1 2.1-24.5 3.1-36.7 3.8-5.5.3-8.3 1.8-9.7 7.3-1.8 7.1-4.6 14-6.6 21.1-2.4 8.1-7.6 13-16 12.6-8.2-.4-12.5-5.9-13.7-13.8-.7-5.2-1.5-10.4-1.9-15.6-.6-8.1.1-15.9-8.5-21.7-6.8-4.6-5.7-14.6 1.4-20.1 5.6-4.4 6.4-9.6 7.2-15.9 5.6-45.1 19.7-87.5 42.1-127.1.3-.5.9-.7 2-1.4 9 35.9 10.8 72.2 9.1 111.8 17.6-11.1 33.1-20.8 50.3-31.6-4.6 7.9-7.6 15.8-12.9 21.5-11.3 12.1-23.9 23.1-35.7 34.7-3 2.9-5.3 6.7-7.9 10 .6.9 1.3 1.9 2 2.8z"/><path d="m1290.3 245.3c-2.1 1.6-4.3 3.2-7.6 5.7 5.5 1.3 9.9 2 14.1 3.4 15.3 5 23.4 18 20.1 33.8-5.2 24.3-17 44-40.4 55.1-13.2 6.3-27.8 4.7-38.8-4.6-10.2-8.7-15.5-24.8-8.7-37.8 6.9-13.4 17.2-25.1 26.2-37.5 8.6-11.8 21.8-15.5 35.1-18.1zm-23.8 23.2c-4.2 11.3-9.1 22.7-12.4 34.6-2 7 2.7 10.4 8.9 6.5 5.8-3.7 11.2-8.7 15.6-14 12.9-16 10.8-21.4-12.1-27.1z"/><path d="m969.7 138.9c.1 25.9-21.7 46-45.1 41.5-15.7-3-25.6-18.2-20.2-33.2 3.4-9.4 8.4-18.5 14.2-26.7 8.5-11.9 20.4-15.8 31.3-12.1 11.9 4.1 19.7 16.2 19.8 30.5z"/><path d="m1366.5 239.1c.9 1.5 1.9 3.1 2.8 4.6.8 1.2 1.7 2.4 2.9 4.2 18.6-17.2 39.5-22.4 64.5-13.6-2.8 1.9-4.6 3.3-6.7 4.4-23.8 12.4-36 32.7-40.4 58.5-2.3 13.5-7 19.3-16.5 20.2-11.2 1.1-20.8-6.7-19.6-19.1 1.8-20 5.9-39.7 9-59.6 1.4.1 2.7.3 4 .4z"/><path d="m933.7 217.2c11.4 15.8 17.2 32.7 21.1 50.6 3.8 17.2.8 33.7-3.6 50.1-1.6 6.1-3.8 12.2-11.6 12.4-7.4.2-8.2-6-10.4-11-15-34.4-11.2-67.9 4.5-102.1z"/><path d="m1700.022 682.594c0-1.521.395-2.688 1.187-3.5.792-.813 1.938-1.219 3.438-1.219 1.52 0 2.677.422 3.468 1.266.792.843 1.188 1.994 1.188 3.453 0 1.479-.401 2.651-1.203 3.515-.802.865-1.953 1.297-3.453 1.297s-2.646-.427-3.438-1.281-1.187-2.031-1.187-3.531zm-23.888 4.531c-5.375 0-9.578-1.568-12.609-4.703-3.031-3.136-4.547-7.453-4.547-12.953 0-5.646 1.406-10.084 4.219-13.313 2.812-3.229 6.677-4.843 11.593-4.843 4.563 0 8.167 1.385 10.813 4.156s3.969 6.583 3.969 11.437v3.969h-23.032c.105 3.354 1.011 5.932 2.719 7.734 1.709 1.802 4.115 2.704 7.219 2.704 2.042 0 3.943-.193 5.703-.579 1.761-.385 3.651-1.026 5.672-1.921v5.968c-1.792.854-3.604 1.459-5.438 1.813-1.833.354-3.927.531-6.281.531zm-1.344-30.25c-2.333 0-4.203.74-5.609 2.219s-2.245 3.635-2.516 6.469h15.688c-.042-2.855-.729-5.016-2.063-6.485-1.333-1.469-3.166-2.203-5.5-2.203zm-43.325 29.625-13.125-34.562h7.75l7.032 20.093c1.208 3.375 1.937 6.104 2.187 8.188h.25c.188-1.5.917-4.229 2.188-8.188l7.031-20.093h7.812l-13.187 34.562zm-18.231-17.344c0 5.646-1.448 10.052-4.343 13.219-2.896 3.167-6.928 4.75-12.094 4.75-3.229 0-6.084-.729-8.563-2.187-2.479-1.459-4.385-3.553-5.718-6.282-1.334-2.729-2-5.896-2-9.5 0-5.604 1.437-9.979 4.312-13.125s6.927-4.718 12.156-4.718c5 0 8.959 1.609 11.875 4.828 2.917 3.218 4.375 7.557 4.375 13.015zm-25.156 0c0 7.979 2.948 11.969 8.844 11.969 5.833 0 8.75-3.99 8.75-11.969 0-7.896-2.938-11.843-8.813-11.843-3.083 0-5.317 1.02-6.703 3.062-1.385 2.042-2.078 4.969-2.078 8.781zm-19.2 17.344h-7.344v-48.625h7.344zm-46.619 0-1.031-4.531h-.375c-1.021 1.604-2.474 2.864-4.359 3.781-1.886.917-4.037 1.375-6.454 1.375-4.187 0-7.312-1.042-9.375-3.125-2.062-2.083-3.093-5.24-3.093-9.469v-22.593h7.406v21.312c0 2.646.542 4.63 1.625 5.953s2.781 1.985 5.094 1.985c3.083 0 5.349-.922 6.797-2.766s2.171-4.932 2.171-9.266v-17.218h7.375v34.562zm-36.012-17.344c0 5.646-1.448 10.052-4.344 13.219s-6.927 4.75-12.094 4.75c-3.229 0-6.083-.729-8.562-2.187-2.48-1.459-4.386-3.553-5.719-6.282s-2-5.896-2-9.5c0-5.604 1.437-9.979 4.312-13.125s6.927-4.718 12.157-4.718c5 0 8.958 1.609 11.875 4.828 2.916 3.218 4.375 7.557 4.375 13.015zm-25.157 0c0 7.979 2.948 11.969 8.844 11.969 5.834 0 8.75-3.99 8.75-11.969 0-7.896-2.937-11.843-8.812-11.843-3.084 0-5.318 1.02-6.703 3.062-1.386 2.042-2.079 4.969-2.079 8.781zm-48.262-17.218h8l7.031 19.593c1.063 2.792 1.771 5.417 2.125 7.875h.25c.188-1.146.531-2.536 1.031-4.172.501-1.635 3.146-9.401 7.938-23.296h7.937l-14.781 39.156c-2.687 7.187-7.166 10.781-13.437 10.781-1.625 0-3.209-.177-4.75-.531v-5.813c1.104.25 2.364.375 3.781.375 3.542 0 6.031-2.052 7.469-6.156l1.281-3.25zm-25.713 24.718c0 3.375-1.229 5.964-3.687 7.766s-5.979 2.703-10.563 2.703c-4.604 0-8.302-.698-11.093-2.094v-6.343c4.062 1.875 7.843 2.812 11.343 2.812 4.521 0 6.782-1.365 6.782-4.094 0-.875-.25-1.604-.75-2.187-.5-.584-1.323-1.188-2.469-1.813s-2.74-1.333-4.781-2.125c-3.98-1.541-6.672-3.083-8.078-4.625-1.407-1.541-2.11-3.541-2.11-6 0-2.958 1.193-5.255 3.578-6.89 2.386-1.636 5.63-2.453 9.735-2.453 4.062 0 7.906.822 11.531 2.468l-2.375 5.532c-3.729-1.542-6.865-2.313-9.406-2.313-3.875 0-5.813 1.104-5.813 3.313 0 1.083.505 2 1.516 2.75 1.01.75 3.213 1.781 6.609 3.093 2.854 1.104 4.927 2.115 6.219 3.032 1.292.916 2.25 1.973 2.875 3.171s.937 2.631.937 4.297zm-48.762 10.469c-4.375 0-7.771-1.573-10.188-4.719h-.437c.292 2.917.437 4.688.437 5.313v14.156h-7.343v-49.937h5.937c.167.645.511 2.187 1.031 4.625h.375c2.292-3.5 5.73-5.25 10.313-5.25 4.312 0 7.672 1.562 10.078 4.687s3.609 7.51 3.609 13.156-1.223 10.052-3.671 13.219-5.829 4.75-10.141 4.75zm-1.781-29.812c-2.917 0-5.047.854-6.391 2.562s-2.016 4.438-2.016 8.188v1.093c0 4.209.667 7.255 2 9.141 1.334 1.885 3.511 2.828 6.532 2.828 2.541 0 4.5-1.042 5.875-3.125s2.062-5.052 2.062-8.906c0-3.875-.682-6.808-2.047-8.797-1.364-1.99-3.369-2.984-6.015-2.984zm-41.294 29.812c-4.375 0-7.771-1.573-10.188-4.719h-.437c.292 2.917.437 4.688.437 5.313v14.156h-7.343v-49.937h5.937c.167.645.511 2.187 1.031 4.625h.375c2.292-3.5 5.73-5.25 10.313-5.25 4.312 0 7.672 1.562 10.078 4.687s3.609 7.51 3.609 13.156-1.224 10.052-3.671 13.219c-2.448 3.167-5.829 4.75-10.141 4.75zm-1.781-29.812c-2.917 0-5.047.854-6.391 2.562s-2.016 4.438-2.016 8.188v1.093c0 4.209.667 7.255 2 9.141 1.334 1.885 3.511 2.828 6.532 2.828 2.541 0 4.5-1.042 5.875-3.125s2.062-5.052 2.062-8.906c0-3.875-.682-6.808-2.047-8.797-1.364-1.99-3.369-2.984-6.015-2.984zm-34.45 29.187-1.469-4.812h-.25c-1.667 2.104-3.344 3.536-5.031 4.296-1.688.761-3.854 1.141-6.5 1.141-3.396 0-6.047-.917-7.953-2.75-1.907-1.833-2.86-4.427-2.86-7.781 0-3.563 1.323-6.25 3.969-8.063 2.646-1.812 6.677-2.802 12.094-2.968l5.968-.188v-1.844c0-2.208-.515-3.859-1.546-4.953-1.032-1.094-2.631-1.64-4.797-1.64-1.771 0-3.469.26-5.094.781s-3.187 1.135-4.688 1.844l-2.375-5.25c1.876-.98 3.928-1.724 6.157-2.235 2.229-.51 4.333-.765 6.312-.765 4.396 0 7.714.958 9.953 2.875 2.24 1.916 3.36 4.927 3.36 9.031v23.281zm-10.938-5c2.667 0 4.808-.745 6.422-2.234 1.615-1.49 2.422-3.578 2.422-6.266v-3l-4.438.188c-3.458.125-5.973.703-7.546 1.734s-2.36 2.609-2.36 4.734c0 1.542.459 2.735 1.375 3.578.917.844 2.292 1.266 4.125 1.266zm-55.494 5.625c-5.375 0-9.578-1.568-12.609-4.703-3.031-3.136-4.547-7.453-4.547-12.953 0-5.646 1.406-10.084 4.219-13.313 2.812-3.229 6.677-4.843 11.594-4.843 4.562 0 8.166 1.385 10.812 4.156s3.969 6.583 3.969 11.437v3.969h-23.031c.104 3.354 1.01 5.932 2.718 7.734 1.709 1.802 4.115 2.704 7.219 2.704 2.042 0 3.943-.193 5.703-.579 1.761-.385 3.651-1.026 5.672-1.921v5.968c-1.792.854-3.604 1.459-5.437 1.813-1.834.354-3.927.531-6.282.531zm-1.343-30.25c-2.334 0-4.203.74-5.61 2.219-1.406 1.479-2.245 3.635-2.515 6.469h15.687c-.042-2.855-.729-5.016-2.062-6.485-1.334-1.469-3.167-2.203-5.5-2.203zm-27.169 29.625h-7.375v-21.25c0-2.667-.536-4.656-1.609-5.969-1.073-1.312-2.776-1.968-5.11-1.968-3.083 0-5.349.921-6.797 2.765s-2.172 4.932-2.172 9.266v17.156h-7.343v-48.625h7.343v12.344c0 1.979-.125 4.094-.375 6.344h.469c1-1.667 2.391-2.959 4.172-3.875 1.781-.917 3.859-1.375 6.234-1.375 8.376 0 12.563 4.218 12.563 12.656zm-45.888-5.312c1.792 0 3.584-.282 5.375-.844v5.531c-.812.354-1.859.651-3.14.891-1.281.239-2.61.359-3.985.359-6.958 0-10.437-3.667-10.437-11v-18.625h-4.719v-3.25l5.063-2.687 2.5-7.313h4.531v7.688h9.844v5.562h-9.844v18.5c0 1.771.443 3.078 1.328 3.922s2.047 1.266 3.484 1.266zm-46.118 5.312h-7.375v-21.25c0-2.667-.537-4.656-1.61-5.969-1.073-1.312-2.776-1.968-5.109-1.968-3.083 0-5.349.921-6.797 2.765s-2.172 4.932-2.172 9.266v17.156h-7.344v-48.625h7.344v12.344c0 1.979-.125 4.094-.375 6.344h.469c1-1.667 2.391-2.959 4.172-3.875 1.781-.917 3.859-1.375 6.234-1.375 8.375 0 12.563 4.218 12.563 12.656zm-45.888-5.312c1.792 0 3.583-.282 5.375-.844v5.531c-.812.354-1.859.651-3.14.891-1.282.239-2.61.359-3.985.359-6.958 0-10.437-3.667-10.437-11v-18.625h-4.719v-3.25l5.062-2.687 2.5-7.313h4.532v7.688h9.843v5.562h-9.843v18.5c0 1.771.442 3.078 1.328 3.922.885.844 2.047 1.266 3.484 1.266zm-26.575 5.312h-7.344v-34.562h7.344zm-7.781-43.719c0-1.312.359-2.323 1.078-3.031s1.745-1.062 3.078-1.062c1.292 0 2.297.354 3.016 1.062s1.078 1.719 1.078 3.031c0 1.25-.359 2.235-1.078 2.953-.719.719-1.724 1.079-3.016 1.079-1.333 0-2.359-.36-3.078-1.079-.719-.718-1.078-1.703-1.078-2.953zm-26.7 43.719-4.469-16.125c-.541-1.708-1.521-5.677-2.937-11.906h-.282c-1.208 5.625-2.166 9.614-2.875 11.969l-4.593 16.062h-8.125l-9.688-34.562h7.5l4.406 17.031c1 4.208 1.709 7.812 2.125 10.812h.188c.208-1.521.526-3.265.953-5.234s.797-3.443 1.109-4.422l5.25-18.187h8.063l5.094 18.187c.312 1.021.703 2.583 1.172 4.688.468 2.104.744 3.739.828 4.906h.25c.312-2.563 1.041-6.146 2.187-10.75l4.469-17.031h7.375l-9.75 34.562zm-63.65-5.312c1.792 0 3.583-.282 5.375-.844v5.531c-.813.354-1.859.651-3.141.891-1.281.239-2.609.359-3.984.359-6.958 0-10.438-3.667-10.438-11v-18.625h-4.718v-3.25l5.062-2.687 2.5-7.313h4.531v7.688h9.844v5.562h-9.844v18.5c0 1.771.443 3.078 1.329 3.922.885.844 2.046 1.266 3.484 1.266zm-37.856 5.937c-5.375 0-9.578-1.568-12.61-4.703-3.031-3.136-4.547-7.453-4.547-12.953 0-5.646 1.407-10.084 4.219-13.313 2.813-3.229 6.677-4.843 11.594-4.843 4.562 0 8.167 1.385 10.812 4.156 2.646 2.771 3.969 6.583 3.969 11.437v3.969h-23.031c.104 3.354 1.01 5.932 2.719 7.734 1.708 1.802 4.114 2.704 7.218 2.704 2.042 0 3.943-.193 5.704-.579 1.76-.385 3.651-1.026 5.671-1.921v5.968c-1.791.854-3.604 1.459-5.437 1.813s-3.927.531-6.281.531zm-1.344-30.25c-2.333 0-4.203.74-5.609 2.219-1.407 1.479-2.245 3.635-2.516 6.469h15.687c-.041-2.855-.729-5.016-2.062-6.485s-3.167-2.203-5.5-2.203zm-38.731 30.25c-5.375 0-9.578-1.568-12.61-4.703-3.031-3.136-4.547-7.453-4.547-12.953 0-5.646 1.407-10.084 4.219-13.313 2.813-3.229 6.677-4.843 11.594-4.843 4.562 0 8.167 1.385 10.812 4.156 2.646 2.771 3.969 6.583 3.969 11.437v3.969h-23.031c.104 3.354 1.01 5.932 2.719 7.734 1.708 1.802 4.114 2.704 7.218 2.704 2.042 0 3.943-.193 5.704-.579 1.76-.385 3.651-1.026 5.671-1.921v5.968c-1.791.854-3.604 1.459-5.437 1.813s-3.927.531-6.281.531zm-1.344-30.25c-2.333 0-4.203.74-5.609 2.219-1.407 1.479-2.245 3.635-2.516 6.469h15.687c-.041-2.855-.729-5.016-2.062-6.485s-3.167-2.203-5.5-2.203zm-49.013 29.625h-7.375v-21.312c0-2.646-.5-4.62-1.5-5.922s-2.562-1.953-4.687-1.953c-2.833 0-4.912.921-6.234 2.765-1.323 1.844-1.985 4.912-1.985 9.203v17.219h-7.344v-34.562h5.75l1.032 4.531h.375c.958-1.646 2.349-2.917 4.172-3.813 1.822-.896 3.828-1.343 6.015-1.343 5.313 0 8.833 1.812 10.563 5.437h.5c1.021-1.708 2.458-3.042 4.312-4s3.979-1.437 6.375-1.437c4.125 0 7.13 1.041 9.016 3.125 1.885 2.083 2.828 5.26 2.828 9.531v22.531h-7.344v-21.312c0-2.646-.505-4.62-1.515-5.922-1.011-1.302-2.579-1.953-4.704-1.953-2.854 0-4.942.89-6.265 2.671-1.323 1.782-1.985 4.516-1.985 8.204zm-68.4 0-1.031-4.531h-.375c-1.021 1.604-2.474 2.864-4.359 3.781-1.886.917-4.037 1.375-6.453 1.375-4.188 0-7.313-1.042-9.375-3.125-2.063-2.083-3.094-5.24-3.094-9.469v-22.593h7.406v21.312c0 2.646.542 4.63 1.625 5.953 1.084 1.323 2.781 1.985 5.094 1.985 3.083 0 5.349-.922 6.797-2.766s2.172-4.932 2.172-9.266v-17.218h7.375v34.562zm-36.012-17.344c0 5.646-1.448 10.052-4.344 13.219s-6.927 4.75-12.094 4.75c-3.229 0-6.083-.729-8.562-2.187-2.479-1.459-4.386-3.553-5.719-6.282s-2-5.896-2-9.5c0-5.604 1.438-9.979 4.313-13.125s6.927-4.718 12.156-4.718c5 0 8.958 1.609 11.875 4.828 2.917 3.218 4.375 7.557 4.375 13.015zm-25.156 0c0 7.979 2.948 11.969 8.843 11.969 5.834 0 8.75-3.99 8.75-11.969 0-7.896-2.937-11.843-8.812-11.843-3.083 0-5.318 1.02-6.703 3.062-1.386 2.042-2.078 4.969-2.078 8.781zm-48.263-17.218h8l7.031 19.593c1.063 2.792 1.771 5.417 2.125 7.875h.25c.188-1.146.532-2.536 1.032-4.172.5-1.635 3.146-9.401 7.937-23.296h7.938l-14.782 39.156c-2.687 7.187-7.166 10.781-13.437 10.781-1.625 0-3.208-.177-4.75-.531v-5.813c1.104.25 2.365.375 3.781.375 3.542 0 6.031-2.052 7.469-6.156l1.281-3.25zm-39.556 35.187c-5.375 0-9.578-1.568-12.609-4.703-3.032-3.136-4.547-7.453-4.547-12.953 0-5.646 1.406-10.084 4.218-13.313 2.813-3.229 6.678-4.843 11.594-4.843 4.563 0 8.167 1.385 10.813 4.156s3.968 6.583 3.968 11.437v3.969h-23.031c.104 3.354 1.011 5.932 2.719 7.734s4.115 2.704 7.219 2.704c2.041 0 3.942-.193 5.703-.579 1.76-.385 3.651-1.026 5.672-1.921v5.968c-1.792.854-3.604 1.459-5.438 1.813-1.833.354-3.927.531-6.281.531zm-1.344-30.25c-2.333 0-4.203.74-5.609 2.219s-2.245 3.635-2.516 6.469h15.688c-.042-2.855-.729-5.016-2.063-6.485-1.333-1.469-3.166-2.203-5.5-2.203zm-25.731-5.562c1.479 0 2.698.104 3.656.312l-.719 6.844c-1.041-.25-2.125-.375-3.25-.375-2.937 0-5.317.958-7.14 2.875-1.823 1.916-2.735 4.406-2.735 7.469v18.062h-7.343v-34.562h5.75l.968 6.093h.375c1.146-2.062 2.641-3.698 4.485-4.906s3.828-1.812 5.953-1.812zm-42.513 35.812c-5.375 0-9.578-1.568-12.609-4.703-3.031-3.136-4.547-7.453-4.547-12.953 0-5.646 1.406-10.084 4.219-13.313 2.812-3.229 6.677-4.843 11.594-4.843 4.562 0 8.166 1.385 10.812 4.156s3.969 6.583 3.969 11.437v3.969h-23.031c.104 3.354 1.01 5.932 2.718 7.734 1.709 1.802 4.115 2.704 7.219 2.704 2.042 0 3.943-.193 5.703-.579 1.761-.385 3.651-1.026 5.672-1.921v5.968c-1.792.854-3.604 1.459-5.437 1.813-1.834.354-3.927.531-6.282.531zm-1.343-30.25c-2.334 0-4.203.74-5.61 2.219-1.406 1.479-2.245 3.635-2.515 6.469h15.687c-.042-2.855-.729-5.016-2.062-6.485-1.334-1.469-3.167-2.203-5.5-2.203zm-27.169 29.625h-7.375v-21.25c0-2.667-.536-4.656-1.609-5.969-1.073-1.312-2.776-1.968-5.11-1.968-3.083 0-5.349.921-6.797 2.765s-2.172 4.932-2.172 9.266v17.156h-7.343v-48.625h7.343v12.344c0 1.979-.125 4.094-.375 6.344h.469c1-1.667 2.391-2.959 4.172-3.875 1.781-.917 3.859-1.375 6.234-1.375 8.376 0 12.563 4.218 12.563 12.656zm-51.2 0h-8.125l-7.75-27.25c-.333-1.187-.75-2.901-1.25-5.141-.5-2.239-.802-3.796-.906-4.671-.209 1.333-.547 3.062-1.016 5.187s-.859 3.708-1.172 4.75l-7.562 27.125h-8.125l-5.907-22.875-6-22.812h7.625l6.532 26.625c1.021 4.27 1.75 8.041 2.187 11.312.229-1.771.573-3.75 1.031-5.937.459-2.188.875-3.959 1.25-5.313l7.438-26.687h7.406l7.625 26.812c.729 2.479 1.5 6.188 2.313 11.125.312-2.979 1.062-6.771 2.25-11.375l6.5-26.562h7.562z"/></g></svg>