<?xml version="1.0" encoding="UTF-8"?>
<svg width="2075px" height="817px" viewBox="0 0 2075 817" xmlns="http://www.w3.org/2000/svg" xmlns:xlink="http://www.w3.org/1999/xlink" version="1.1">
 <!-- Generated by Pixelmator Pro 1.5.2 -->
 <g id="group">
  <path id="Path" d="M770.8 332.2 C757.7 337.6 746 344.2 733.5 347.1 713.4 351.8 696.8 335.7 700.2 315.4 705.3 285.1 711.6 254.9 717.5 224.7 718.5 224.6 719.6 224.6 720.6 224.5 725.4 244.3 730.2 264.1 735.6 286.3 745.8 266 762 251.4 764.8 229 767.7 205.8 782.7 190.8 802.7 188.1 826.7 184.9 848.4 207.8 840.8 230.7 835.9 245.5 837.8 259.1 839.4 273.4 844.5 317 849.1 360.6 842.6 404.4 834.9 456.8 804.4 487.4 752.2 496.8 724.9 501.7 697.6 501.8 670.2 498.8 665.5 498.3 661 496.4 654.9 494.7 687.4 482.6 716.6 468.2 744.1 450.4 764.3 437.3 775.1 419.3 773.6 394.6 772.7 380.1 772.4 365.6 771.8 351.1 771.5 344.4 771 337.7 770.8 332.2 Z" fill="#2d4051" fill-opacity="1" stroke="none"/>
  <path id="Path-1" d="M330.9 119.8 C334.6 145.6 340.4 171.4 341.4 197.3 343.1 243.8 341.9 290.4 341.9 336.9 341.9 349.8 341.8 350.5 354.7 351.1 394.7 353.1 434.8 354.6 474.9 356.1 485.6 356.5 496.3 356.2 506.9 356.2 507 357.1 507.2 358.1 507.3 359 505.1 360.4 502.9 361.9 500.6 363 461.3 382.2 422.2 402.2 379.3 412.2 365.3 415.5 350.6 417.3 336.3 417.1 298.8 416.5 273.9 393.2 274.1 355.8 274.2 327.3 278.4 298.7 282.9 270.5 290.9 220.1 306.6 171.7 325.7 124.5 326.4 122.8 327.3 121.2 328.1 119.6 328.9 119.7 329.9 119.7 330.9 119.8 Z" fill="#2d4051" fill-opacity="1" stroke="none"/>
  <path id="Path-2" d="M1729.6 274.4 C1713 275.4 1697.4 277 1681.8 277 1666.8 277 1651.5 276.5 1636.7 274.2 1629 273 1620.9 268.5 1615 263.2 1604.2 253.7 1605.6 238.3 1617.1 229.5 1627.2 221.9 1637.9 215 1648 207.5 1660.3 198.4 1672.4 188.9 1686.3 180.1 1680.2 192.9 1674.1 205.8 1667.7 219.2 1669.6 218.9 1671.8 218.7 1673.9 218.2 1691.6 214.1 1709.1 209.3 1727 206 1782 195.8 1807.3 242.5 1800.4 282.6 1795 314 1777 338.1 1753.2 357.8 1735.2 372.7 1715.5 385.6 1696.5 399.4 1689.8 404.3 1683.1 403.9 1677.1 398.4 1670.6 392.5 1673.3 386.2 1677.2 380.1 1689.3 361.1 1702 342.6 1713 323 1719.5 311.6 1723.4 298.8 1728.1 286.4 1729.3 283.2 1729 279.4 1729.6 274.4 Z" fill="#2d4051" fill-opacity="1" stroke="none"/>
  <path id="Path-3" d="M1102.5 318.1 C1090.1 333 1078.3 347.6 1065.9 361.7 1057.3 371.6 1048.9 373.5 1039.7 369.2 1030.6 365 1025.3 355.3 1028.4 343.4 1035.7 315.5 1044.3 287.9 1052.4 260.2 1053.5 260.3 1054.7 260.4 1055.8 260.5 1057.3 268 1058.7 275.5 1060.6 285.2 1065.3 277.7 1069 271.9 1072.7 266.1 1076 260.9 1079.4 255.7 1082.5 250.4 1089.9 238.1 1099.8 229.7 1115 232.6 1130.4 235.6 1138.3 246.6 1141.4 261.4 1143.3 270.3 1145 279.3 1147.2 289.9 1168.5 270.4 1176.4 244.4 1191.8 220.2 1192.8 254.3 1194.2 285.9 1177.9 314.9 1167 334.2 1150.8 342.6 1131.4 339.5 1121 337.8 1115.8 334 1102.5 318.1 Z" fill="#2d4051" fill-opacity="1" stroke="none"/>
  <path id="Path-4" d="M520.4 336.8 C522.1 329.2 522.9 322.3 525.2 316.1 536.9 285.2 556.2 259.9 586.3 245.4 603.9 236.9 622.8 240.3 639.5 250.3 657.4 261.1 662 278.1 658.2 297.6 651.2 333.6 634.1 362.2 599.7 379.2 573.5 392.1 538.4 381.8 525.7 355.5 522.9 349.6 522 342.8 520.4 336.8 Z M547.5 317.1 C547.3 335.8 555.9 344.5 569.3 340.8 577.6 338.5 586.1 334.4 592.9 329.1 607.1 318 614.9 301.9 620.6 285.3 621.8 281.7 619.2 274.9 616.1 272 606 262.6 592.9 259.8 579.5 259.2 577.7 259.1 575.2 260.3 574 261.7 560 278.8 549.3 297.5 547.5 317.1 Z" fill="#2d4051" fill-opacity="1" stroke="none"/>
  <path id="Path-5" d="M1528.2 263.4 C1544.6 262.8 1559.6 276.3 1576.8 267.9 1577.8 276.9 1573.9 283.2 1563.7 285 1551.6 287.1 1539.2 288.1 1527 288.8 1521.5 289.1 1518.7 290.6 1517.3 296.1 1515.5 303.2 1512.7 310.1 1510.7 317.2 1508.3 325.3 1503.1 330.2 1494.7 329.8 1486.5 329.4 1482.2 323.9 1481 316 1480.3 310.8 1479.5 305.6 1479.1 300.4 1478.5 292.3 1479.2 284.5 1470.6 278.7 1463.8 274.1 1464.9 264.1 1472 258.6 1477.6 254.2 1478.4 249 1479.2 242.7 1484.8 197.6 1498.9 155.2 1521.3 115.6 1521.6 115.1 1522.2 114.9 1523.3 114.2 1532.3 150.1 1534.1 186.4 1532.4 226 1550 214.9 1565.5 205.2 1582.7 194.4 1578.1 202.3 1575.1 210.2 1569.8 215.9 1558.5 228 1545.9 239 1534.1 250.6 1531.1 253.5 1528.8 257.3 1526.2 260.6 1526.8 261.5 1527.5 262.5 1528.2 263.4 Z" fill="#2d4051" fill-opacity="1" stroke="none"/>
  <path id="Path-6" d="M1290.3 245.3 C1288.2 246.9 1286 248.5 1282.7 251 1288.2 252.3 1292.6 253 1296.8 254.4 1312.1 259.4 1320.2 272.4 1316.9 288.2 1311.7 312.5 1299.9 332.2 1276.5 343.3 1263.3 349.6 1248.7 348 1237.7 338.7 1227.5 330 1222.2 313.9 1229 300.9 1235.9 287.5 1246.2 275.8 1255.2 263.4 1263.8 251.6 1277 247.9 1290.3 245.3 Z M1266.5 268.5 C1262.3 279.8 1257.4 291.2 1254.1 303.1 1252.1 310.1 1256.8 313.5 1263 309.6 1268.8 305.9 1274.2 300.9 1278.6 295.6 1291.5 279.6 1289.4 274.2 1266.5 268.5 Z" fill="#2d4051" fill-opacity="1" stroke="none"/>
  <path id="Path-7" d="M969.7 138.9 C969.8 164.8 948 184.9 924.6 180.4 908.9 177.4 899 162.2 904.4 147.2 907.8 137.8 912.8 128.7 918.6 120.5 927.1 108.6 939 104.7 949.9 108.4 961.8 112.5 969.6 124.6 969.7 138.9 Z" fill="#2d4051" fill-opacity="1" stroke="none"/>
  <path id="Path-8" d="M1366.5 239.1 C1367.4 240.6 1368.4 242.2 1369.3 243.7 1370.1 244.9 1371 246.1 1372.2 247.9 1390.8 230.7 1411.7 225.5 1436.7 234.3 1433.9 236.2 1432.1 237.6 1430 238.7 1406.2 251.1 1394 271.4 1389.6 297.2 1387.3 310.7 1382.6 316.5 1373.1 317.4 1361.9 318.5 1352.3 310.7 1353.5 298.3 1355.3 278.3 1359.4 258.6 1362.5 238.7 1363.9 238.8 1365.2 239 1366.5 239.1 Z" fill="#2d4051" fill-opacity="1" stroke="none"/>
  <path id="Path-9" d="M933.7 217.2 C945.1 233 950.9 249.9 954.8 267.8 958.6 285 955.6 301.5 951.2 317.9 949.6 324 947.4 330.1 939.6 330.3 932.2 330.5 931.4 324.3 929.2 319.3 914.2 284.9 918 251.4 933.7 217.2 Z" fill="#2d4051" fill-opacity="1" stroke="none"/>
 </g>
 <path id="Where-you-meet-with-the-apps-you-love." d="M1700.022 682.594 C1700.022 681.073 1700.417 679.906 1701.209 679.094 1702.001 678.281 1703.147 677.875 1704.647 677.875 1706.167 677.875 1707.324 678.297 1708.115 679.141 1708.907 679.984 1709.303 681.135 1709.303 682.594 1709.303 684.073 1708.902 685.245 1708.1 686.109 1707.298 686.974 1706.147 687.406 1704.647 687.406 1703.147 687.406 1702.001 686.979 1701.209 686.125 1700.417 685.271 1700.022 684.094 1700.022 682.594 Z M1676.134 687.125 C1670.759 687.125 1666.556 685.557 1663.525 682.422 1660.494 679.286 1658.978 674.969 1658.978 669.469 1658.978 663.823 1660.384 659.385 1663.197 656.156 1666.009 652.927 1669.874 651.313 1674.79 651.313 1679.353 651.313 1682.957 652.698 1685.603 655.469 1688.249 658.24 1689.572 662.052 1689.572 666.906 L1689.572 670.875 1666.54 670.875 C1666.645 674.229 1667.551 676.807 1669.259 678.609 1670.968 680.411 1673.374 681.313 1676.478 681.313 1678.52 681.313 1680.421 681.12 1682.181 680.734 1683.942 680.349 1685.832 679.708 1687.853 678.813 L1687.853 684.781 C1686.061 685.635 1684.249 686.24 1682.415 686.594 1680.582 686.948 1678.488 687.125 1676.134 687.125 Z M1674.79 656.875 C1672.457 656.875 1670.587 657.615 1669.181 659.094 1667.775 660.573 1666.936 662.729 1666.665 665.563 L1682.353 665.563 C1682.311 662.708 1681.624 660.547 1680.29 659.078 1678.957 657.609 1677.124 656.875 1674.79 656.875 Z M1631.465 686.5 L1618.34 651.938 1626.09 651.938 1633.122 672.031 C1634.33 675.406 1635.059 678.135 1635.309 680.219 L1635.559 680.219 C1635.747 678.719 1636.476 675.99 1637.747 672.031 L1644.778 651.938 1652.59 651.938 1639.403 686.5 Z M1613.234 669.156 C1613.234 674.802 1611.786 679.208 1608.891 682.375 1605.995 685.542 1601.963 687.125 1596.797 687.125 1593.568 687.125 1590.713 686.396 1588.234 684.938 1585.755 683.479 1583.849 681.385 1582.516 678.656 1581.182 675.927 1580.516 672.76 1580.516 669.156 1580.516 663.552 1581.953 659.177 1584.828 656.031 1587.703 652.885 1591.755 651.313 1596.984 651.313 1601.984 651.313 1605.943 652.922 1608.859 656.141 1611.776 659.359 1613.234 663.698 1613.234 669.156 Z M1588.078 669.156 C1588.078 677.135 1591.026 681.125 1596.922 681.125 1602.755 681.125 1605.672 677.135 1605.672 669.156 1605.672 661.26 1602.734 657.313 1596.859 657.313 1593.776 657.313 1591.542 658.333 1590.156 660.375 1588.771 662.417 1588.078 665.344 1588.078 669.156 Z M1568.878 686.5 L1561.534 686.5 1561.534 637.875 1568.878 637.875 Z M1522.259 686.5 L1521.228 681.969 1520.853 681.969 C1519.832 683.573 1518.379 684.833 1516.494 685.75 1514.608 686.667 1512.457 687.125 1510.04 687.125 1505.853 687.125 1502.728 686.083 1500.665 684 1498.603 681.917 1497.572 678.76 1497.572 674.531 L1497.572 651.938 1504.978 651.938 1504.978 673.25 C1504.978 675.896 1505.52 677.88 1506.603 679.203 1507.686 680.526 1509.384 681.188 1511.697 681.188 1514.78 681.188 1517.046 680.266 1518.494 678.422 1519.942 676.578 1520.665 673.49 1520.665 669.156 L1520.665 651.938 1528.04 651.938 1528.04 686.5 Z M1486.247 669.156 C1486.247 674.802 1484.799 679.208 1481.903 682.375 1479.007 685.542 1474.976 687.125 1469.809 687.125 1466.58 687.125 1463.726 686.396 1461.247 684.938 1458.767 683.479 1456.861 681.385 1455.528 678.656 1454.195 675.927 1453.528 672.76 1453.528 669.156 1453.528 663.552 1454.965 659.177 1457.84 656.031 1460.715 652.885 1464.767 651.313 1469.997 651.313 1474.997 651.313 1478.955 652.922 1481.872 656.141 1484.788 659.359 1486.247 663.698 1486.247 669.156 Z M1461.09 669.156 C1461.09 677.135 1464.038 681.125 1469.934 681.125 1475.768 681.125 1478.684 677.135 1478.684 669.156 1478.684 661.26 1475.747 657.313 1469.872 657.313 1466.788 657.313 1464.554 658.333 1463.169 660.375 1461.783 662.417 1461.09 665.344 1461.09 669.156 Z M1412.828 651.938 L1420.828 651.938 1427.859 671.531 C1428.922 674.323 1429.63 676.948 1429.984 679.406 L1430.234 679.406 C1430.422 678.26 1430.765 676.87 1431.265 675.234 1431.766 673.599 1434.411 665.833 1439.203 651.938 L1447.14 651.938 1432.359 691.094 C1429.672 698.281 1425.193 701.875 1418.922 701.875 1417.297 701.875 1415.713 701.698 1414.172 701.344 L1414.172 695.531 C1415.276 695.781 1416.536 695.906 1417.953 695.906 1421.495 695.906 1423.984 693.854 1425.422 689.75 L1426.703 686.5 Z M1387.115 676.656 C1387.115 680.031 1385.886 682.62 1383.428 684.422 1380.97 686.224 1377.449 687.125 1372.865 687.125 1368.261 687.125 1364.563 686.427 1361.772 685.031 L1361.772 678.688 C1365.834 680.563 1369.615 681.5 1373.115 681.5 1377.636 681.5 1379.897 680.135 1379.897 677.406 1379.897 676.531 1379.647 675.802 1379.147 675.219 1378.647 674.635 1377.824 674.031 1376.678 673.406 1375.532 672.781 1373.938 672.073 1371.897 671.281 1367.917 669.74 1365.225 668.198 1363.819 666.656 1362.412 665.115 1361.709 663.115 1361.709 660.656 1361.709 657.698 1362.902 655.401 1365.287 653.766 1367.673 652.13 1370.917 651.313 1375.022 651.313 1379.084 651.313 1382.928 652.135 1386.553 653.781 L1384.178 659.313 C1380.449 657.771 1377.313 657 1374.772 657 1370.897 657 1368.959 658.104 1368.959 660.313 1368.959 661.396 1369.464 662.313 1370.475 663.063 1371.485 663.813 1373.688 664.844 1377.084 666.156 1379.938 667.26 1382.011 668.271 1383.303 669.188 1384.595 670.104 1385.553 671.161 1386.178 672.359 1386.803 673.557 1387.115 674.99 1387.115 676.656 Z M1338.353 687.125 C1333.978 687.125 1330.582 685.552 1328.165 682.406 L1327.728 682.406 C1328.02 685.323 1328.165 687.094 1328.165 687.719 L1328.165 701.875 1320.822 701.875 1320.822 651.938 1326.759 651.938 C1326.926 652.583 1327.27 654.125 1327.79 656.563 L1328.165 656.563 C1330.457 653.063 1333.895 651.313 1338.478 651.313 1342.79 651.313 1346.15 652.875 1348.556 656 1350.962 659.125 1352.165 663.51 1352.165 669.156 1352.165 674.802 1350.942 679.208 1348.494 682.375 1346.046 685.542 1342.665 687.125 1338.353 687.125 Z M1336.572 657.313 C1333.655 657.313 1331.525 658.167 1330.181 659.875 1328.837 661.583 1328.165 664.313 1328.165 668.063 L1328.165 669.156 C1328.165 673.365 1328.832 676.411 1330.165 678.297 1331.499 680.182 1333.676 681.125 1336.697 681.125 1339.238 681.125 1341.197 680.083 1342.572 678 1343.947 675.917 1344.634 672.948 1344.634 669.094 1344.634 665.219 1343.952 662.286 1342.587 660.297 1341.223 658.307 1339.218 657.313 1336.572 657.313 Z M1295.278 687.125 C1290.903 687.125 1287.507 685.552 1285.09 682.406 L1284.653 682.406 C1284.945 685.323 1285.09 687.094 1285.09 687.719 L1285.09 701.875 1277.747 701.875 1277.747 651.938 1283.684 651.938 C1283.851 652.583 1284.195 654.125 1284.715 656.563 L1285.09 656.563 C1287.382 653.063 1290.82 651.313 1295.403 651.313 1299.715 651.313 1303.075 652.875 1305.481 656 1307.887 659.125 1309.09 663.51 1309.09 669.156 1309.09 674.802 1307.866 679.208 1305.419 682.375 1302.971 685.542 1299.59 687.125 1295.278 687.125 Z M1293.497 657.313 C1290.58 657.313 1288.45 658.167 1287.106 659.875 1285.762 661.583 1285.09 664.313 1285.09 668.063 L1285.09 669.156 C1285.09 673.365 1285.757 676.411 1287.09 678.297 1288.424 680.182 1290.601 681.125 1293.622 681.125 1296.163 681.125 1298.122 680.083 1299.497 678 1300.872 675.917 1301.559 672.948 1301.559 669.094 1301.559 665.219 1300.877 662.286 1299.512 660.297 1298.148 658.307 1296.143 657.313 1293.497 657.313 Z M1259.047 686.5 L1257.578 681.688 1257.328 681.688 C1255.661 683.792 1253.984 685.224 1252.297 685.984 1250.609 686.745 1248.443 687.125 1245.797 687.125 1242.401 687.125 1239.75 686.208 1237.844 684.375 1235.937 682.542 1234.984 679.948 1234.984 676.594 1234.984 673.031 1236.307 670.344 1238.953 668.531 1241.599 666.719 1245.63 665.729 1251.047 665.563 L1257.015 665.375 1257.015 663.531 C1257.015 661.323 1256.5 659.672 1255.469 658.578 1254.437 657.484 1252.838 656.938 1250.672 656.938 1248.901 656.938 1247.203 657.198 1245.578 657.719 1243.953 658.24 1242.391 658.854 1240.89 659.563 L1238.515 654.313 C1240.391 653.333 1242.443 652.589 1244.672 652.078 1246.901 651.568 1249.005 651.313 1250.984 651.313 1255.38 651.313 1258.698 652.271 1260.937 654.188 1263.177 656.104 1264.297 659.115 1264.297 663.219 L1264.297 686.5 Z M1248.109 681.5 C1250.776 681.5 1252.917 680.755 1254.531 679.266 1256.146 677.776 1256.953 675.688 1256.953 673 L1256.953 670 1252.515 670.188 C1249.057 670.313 1246.542 670.891 1244.969 671.922 1243.396 672.953 1242.609 674.531 1242.609 676.656 1242.609 678.198 1243.068 679.391 1243.984 680.234 1244.901 681.078 1246.276 681.5 1248.109 681.5 Z M1192.615 687.125 C1187.24 687.125 1183.037 685.557 1180.006 682.422 1176.975 679.286 1175.459 674.969 1175.459 669.469 1175.459 663.823 1176.865 659.385 1179.678 656.156 1182.49 652.927 1186.355 651.313 1191.272 651.313 1195.834 651.313 1199.438 652.698 1202.084 655.469 1204.73 658.24 1206.053 662.052 1206.053 666.906 L1206.053 670.875 1183.022 670.875 C1183.126 674.229 1184.032 676.807 1185.74 678.609 1187.449 680.411 1189.855 681.313 1192.959 681.313 1195.001 681.313 1196.902 681.12 1198.662 680.734 1200.423 680.349 1202.313 679.708 1204.334 678.813 L1204.334 684.781 C1202.542 685.635 1200.73 686.24 1198.897 686.594 1197.063 686.948 1194.97 687.125 1192.615 687.125 Z M1191.272 656.875 C1188.938 656.875 1187.069 657.615 1185.662 659.094 1184.256 660.573 1183.417 662.729 1183.147 665.563 L1198.834 665.563 C1198.792 662.708 1198.105 660.547 1196.772 659.078 1195.438 657.609 1193.605 656.875 1191.272 656.875 Z M1164.103 686.5 L1156.728 686.5 1156.728 665.25 C1156.728 662.583 1156.192 660.594 1155.119 659.281 1154.046 657.969 1152.343 657.313 1150.009 657.313 1146.926 657.313 1144.66 658.234 1143.212 660.078 1141.764 661.922 1141.04 665.01 1141.04 669.344 L1141.04 686.5 1133.697 686.5 1133.697 637.875 1141.04 637.875 1141.04 650.219 C1141.04 652.198 1140.915 654.313 1140.665 656.563 L1141.134 656.563 C1142.134 654.896 1143.525 653.604 1145.306 652.688 1147.087 651.771 1149.165 651.313 1151.54 651.313 1159.916 651.313 1164.103 655.531 1164.103 663.969 Z M1118.215 681.188 C1120.007 681.188 1121.799 680.906 1123.59 680.344 L1123.59 685.875 C1122.778 686.229 1121.731 686.526 1120.45 686.766 1119.169 687.005 1117.84 687.125 1116.465 687.125 1109.507 687.125 1106.028 683.458 1106.028 676.125 L1106.028 657.5 1101.309 657.5 1101.309 654.25 1106.372 651.563 1108.872 644.25 1113.403 644.25 1113.403 651.938 1123.247 651.938 1123.247 657.5 1113.403 657.5 1113.403 676 C1113.403 677.771 1113.846 679.078 1114.731 679.922 1115.616 680.766 1116.778 681.188 1118.215 681.188 Z M1072.097 686.5 L1064.722 686.5 1064.722 665.25 C1064.722 662.583 1064.185 660.594 1063.112 659.281 1062.039 657.969 1060.336 657.313 1058.003 657.313 1054.92 657.313 1052.654 658.234 1051.206 660.078 1049.758 661.922 1049.034 665.01 1049.034 669.344 L1049.034 686.5 1041.69 686.5 1041.69 637.875 1049.034 637.875 1049.034 650.219 C1049.034 652.198 1048.909 654.313 1048.659 656.563 L1049.128 656.563 C1050.128 654.896 1051.519 653.604 1053.3 652.688 1055.081 651.771 1057.159 651.313 1059.534 651.313 1067.909 651.313 1072.097 655.531 1072.097 663.969 Z M1026.209 681.188 C1028.001 681.188 1029.792 680.906 1031.584 680.344 L1031.584 685.875 C1030.772 686.229 1029.725 686.526 1028.444 686.766 1027.162 687.005 1025.834 687.125 1024.459 687.125 1017.501 687.125 1014.022 683.458 1014.022 676.125 L1014.022 657.5 1009.303 657.5 1009.303 654.25 1014.365 651.563 1016.865 644.25 1021.397 644.25 1021.397 651.938 1031.24 651.938 1031.24 657.5 1021.397 657.5 1021.397 676 C1021.397 677.771 1021.839 679.078 1022.725 679.922 1023.61 680.766 1024.772 681.188 1026.209 681.188 Z M999.634 686.5 L992.29 686.5 992.29 651.938 999.634 651.938 Z M991.853 642.781 C991.853 641.469 992.212 640.458 992.931 639.75 993.65 639.042 994.676 638.688 996.009 638.688 997.301 638.688 998.306 639.042 999.025 639.75 999.744 640.458 1000.103 641.469 1000.103 642.781 1000.103 644.031 999.744 645.016 999.025 645.734 998.306 646.453 997.301 646.813 996.009 646.813 994.676 646.813 993.65 646.453 992.931 645.734 992.212 645.016 991.853 644.031 991.853 642.781 Z M965.153 686.5 L960.684 670.375 C960.143 668.667 959.163 664.698 957.747 658.469 L957.465 658.469 C956.257 664.094 955.299 668.083 954.59 670.438 L949.997 686.5 941.872 686.5 932.184 651.938 939.684 651.938 944.09 668.969 C945.09 673.177 945.799 676.781 946.215 679.781 L946.403 679.781 C946.611 678.26 946.929 676.516 947.356 674.547 947.783 672.578 948.153 671.104 948.465 670.125 L953.715 651.938 961.778 651.938 966.872 670.125 C967.184 671.146 967.575 672.708 968.044 674.813 968.512 676.917 968.788 678.552 968.872 679.719 L969.122 679.719 C969.434 677.156 970.163 673.573 971.309 668.969 L975.778 651.938 983.153 651.938 973.403 686.5 Z M901.503 681.188 C903.295 681.188 905.086 680.906 906.878 680.344 L906.878 685.875 C906.065 686.229 905.019 686.526 903.737 686.766 902.456 687.005 901.128 687.125 899.753 687.125 892.795 687.125 889.315 683.458 889.315 676.125 L889.315 657.5 884.597 657.5 884.597 654.25 889.659 651.563 892.159 644.25 896.69 644.25 896.69 651.938 906.534 651.938 906.534 657.5 896.69 657.5 896.69 676 C896.69 677.771 897.133 679.078 898.019 679.922 898.904 680.766 900.065 681.188 901.503 681.188 Z M863.647 687.125 C858.272 687.125 854.069 685.557 851.037 682.422 848.006 679.286 846.49 674.969 846.49 669.469 846.49 663.823 847.897 659.385 850.709 656.156 853.522 652.927 857.386 651.313 862.303 651.313 866.865 651.313 870.47 652.698 873.115 655.469 875.761 658.24 877.084 662.052 877.084 666.906 L877.084 670.875 854.053 670.875 C854.157 674.229 855.063 676.807 856.772 678.609 858.48 680.411 860.886 681.313 863.99 681.313 866.032 681.313 867.933 681.12 869.694 680.734 871.454 680.349 873.345 679.708 875.365 678.813 L875.365 684.781 C873.574 685.635 871.761 686.24 869.928 686.594 868.095 686.948 866.001 687.125 863.647 687.125 Z M862.303 656.875 C859.97 656.875 858.1 657.615 856.694 659.094 855.287 660.573 854.449 662.729 854.178 665.563 L869.865 665.563 C869.824 662.708 869.136 660.547 867.803 659.078 866.47 657.609 864.636 656.875 862.303 656.875 Z M823.572 687.125 C818.197 687.125 813.994 685.557 810.962 682.422 807.931 679.286 806.415 674.969 806.415 669.469 806.415 663.823 807.822 659.385 810.634 656.156 813.447 652.927 817.311 651.313 822.228 651.313 826.79 651.313 830.395 652.698 833.04 655.469 835.686 658.24 837.009 662.052 837.009 666.906 L837.009 670.875 813.978 670.875 C814.082 674.229 814.988 676.807 816.697 678.609 818.405 680.411 820.811 681.313 823.915 681.313 825.957 681.313 827.858 681.12 829.619 680.734 831.379 680.349 833.27 679.708 835.29 678.813 L835.29 684.781 C833.499 685.635 831.686 686.24 829.853 686.594 828.02 686.948 825.926 687.125 823.572 687.125 Z M822.228 656.875 C819.895 656.875 818.025 657.615 816.619 659.094 815.212 660.573 814.374 662.729 814.103 665.563 L829.79 665.563 C829.749 662.708 829.061 660.547 827.728 659.078 826.395 657.609 824.561 656.875 822.228 656.875 Z M773.215 686.5 L765.84 686.5 765.84 665.188 C765.84 662.542 765.34 660.568 764.34 659.266 763.34 657.964 761.778 657.313 759.653 657.313 756.82 657.313 754.741 658.234 753.419 660.078 752.096 661.922 751.434 664.99 751.434 669.281 L751.434 686.5 744.09 686.5 744.09 651.938 749.84 651.938 750.872 656.469 751.247 656.469 C752.205 654.823 753.596 653.552 755.419 652.656 757.241 651.76 759.247 651.313 761.434 651.313 766.747 651.313 770.267 653.125 771.997 656.75 L772.497 656.75 C773.518 655.042 774.955 653.708 776.809 652.75 778.663 651.792 780.788 651.313 783.184 651.313 787.309 651.313 790.314 652.354 792.2 654.438 794.085 656.521 795.028 659.698 795.028 663.969 L795.028 686.5 787.684 686.5 787.684 665.188 C787.684 662.542 787.179 660.568 786.169 659.266 785.158 657.964 783.59 657.313 781.465 657.313 778.611 657.313 776.523 658.203 775.2 659.984 773.877 661.766 773.215 664.5 773.215 668.188 Z M704.815 686.5 L703.784 681.969 703.409 681.969 C702.388 683.573 700.935 684.833 699.05 685.75 697.164 686.667 695.013 687.125 692.597 687.125 688.409 687.125 685.284 686.083 683.222 684 681.159 681.917 680.128 678.76 680.128 674.531 L680.128 651.938 687.534 651.938 687.534 673.25 C687.534 675.896 688.076 677.88 689.159 679.203 690.243 680.526 691.94 681.188 694.253 681.188 697.336 681.188 699.602 680.266 701.05 678.422 702.498 676.578 703.222 673.49 703.222 669.156 L703.222 651.938 710.597 651.938 710.597 686.5 Z M668.803 669.156 C668.803 674.802 667.355 679.208 664.459 682.375 661.563 685.542 657.532 687.125 652.365 687.125 649.136 687.125 646.282 686.396 643.803 684.938 641.324 683.479 639.417 681.385 638.084 678.656 636.751 675.927 636.084 672.76 636.084 669.156 636.084 663.552 637.522 659.177 640.397 656.031 643.272 652.885 647.324 651.313 652.553 651.313 657.553 651.313 661.511 652.922 664.428 656.141 667.345 659.359 668.803 663.698 668.803 669.156 Z M643.647 669.156 C643.647 677.135 646.595 681.125 652.49 681.125 658.324 681.125 661.24 677.135 661.24 669.156 661.24 661.26 658.303 657.313 652.428 657.313 649.345 657.313 647.11 658.333 645.725 660.375 644.339 662.417 643.647 665.344 643.647 669.156 Z M595.384 651.938 L603.384 651.938 610.415 671.531 C611.478 674.323 612.186 676.948 612.54 679.406 L612.79 679.406 C612.978 678.26 613.322 676.87 613.822 675.234 614.322 673.599 616.968 665.833 621.759 651.938 L629.697 651.938 614.915 691.094 C612.228 698.281 607.749 701.875 601.478 701.875 599.853 701.875 598.27 701.698 596.728 701.344 L596.728 695.531 C597.832 695.781 599.093 695.906 600.509 695.906 604.051 695.906 606.54 693.854 607.978 689.75 L609.259 686.5 Z M555.828 687.125 C550.453 687.125 546.25 685.557 543.219 682.422 540.187 679.286 538.672 674.969 538.672 669.469 538.672 663.823 540.078 659.385 542.89 656.156 545.703 652.927 549.568 651.313 554.484 651.313 559.047 651.313 562.651 652.698 565.297 655.469 567.943 658.24 569.265 662.052 569.265 666.906 L569.265 670.875 546.234 670.875 C546.338 674.229 547.245 676.807 548.953 678.609 550.661 680.411 553.068 681.313 556.172 681.313 558.213 681.313 560.114 681.12 561.875 680.734 563.635 680.349 565.526 679.708 567.547 678.813 L567.547 684.781 C565.755 685.635 563.943 686.24 562.109 686.594 560.276 686.948 558.182 687.125 555.828 687.125 Z M554.484 656.875 C552.151 656.875 550.281 657.615 548.875 659.094 547.469 660.573 546.63 662.729 546.359 665.563 L562.047 665.563 C562.005 662.708 561.318 660.547 559.984 659.078 558.651 657.609 556.818 656.875 554.484 656.875 Z M528.753 651.313 C530.232 651.313 531.451 651.417 532.409 651.625 L531.69 658.469 C530.649 658.219 529.565 658.094 528.44 658.094 525.503 658.094 523.123 659.052 521.3 660.969 519.477 662.885 518.565 665.375 518.565 668.438 L518.565 686.5 511.222 686.5 511.222 651.938 516.972 651.938 517.94 658.031 518.315 658.031 C519.461 655.969 520.956 654.333 522.8 653.125 524.644 651.917 526.628 651.313 528.753 651.313 Z M486.24 687.125 C480.865 687.125 476.662 685.557 473.631 682.422 470.6 679.286 469.084 674.969 469.084 669.469 469.084 663.823 470.49 659.385 473.303 656.156 476.115 652.927 479.98 651.313 484.897 651.313 489.459 651.313 493.063 652.698 495.709 655.469 498.355 658.24 499.678 662.052 499.678 666.906 L499.678 670.875 476.647 670.875 C476.751 674.229 477.657 676.807 479.365 678.609 481.074 680.411 483.48 681.313 486.584 681.313 488.626 681.313 490.527 681.12 492.287 680.734 494.048 680.349 495.938 679.708 497.959 678.813 L497.959 684.781 C496.167 685.635 494.355 686.24 492.522 686.594 490.688 686.948 488.595 687.125 486.24 687.125 Z M484.897 656.875 C482.563 656.875 480.694 657.615 479.287 659.094 477.881 660.573 477.042 662.729 476.772 665.563 L492.459 665.563 C492.417 662.708 491.73 660.547 490.397 659.078 489.063 657.609 487.23 656.875 484.897 656.875 Z M457.728 686.5 L450.353 686.5 450.353 665.25 C450.353 662.583 449.817 660.594 448.744 659.281 447.671 657.969 445.968 657.313 443.634 657.313 440.551 657.313 438.285 658.234 436.837 660.078 435.389 661.922 434.665 665.01 434.665 669.344 L434.665 686.5 427.322 686.5 427.322 637.875 434.665 637.875 434.665 650.219 C434.665 652.198 434.54 654.313 434.29 656.563 L434.759 656.563 C435.759 654.896 437.15 653.604 438.931 652.688 440.712 651.771 442.79 651.313 445.165 651.313 453.541 651.313 457.728 655.531 457.728 663.969 Z M406.528 686.5 L398.403 686.5 390.653 659.25 C390.32 658.063 389.903 656.349 389.403 654.109 388.903 651.87 388.601 650.313 388.497 649.438 388.288 650.771 387.95 652.5 387.481 654.625 387.012 656.75 386.622 658.333 386.309 659.375 L378.747 686.5 370.622 686.5 364.715 663.625 358.715 640.813 366.34 640.813 372.872 667.438 C373.893 671.708 374.622 675.479 375.059 678.75 375.288 676.979 375.632 675 376.09 672.813 376.549 670.625 376.965 668.854 377.34 667.5 L384.778 640.813 392.184 640.813 399.809 667.625 C400.538 670.104 401.309 673.813 402.122 678.75 402.434 675.771 403.184 671.979 404.372 667.375 L410.872 640.813 418.434 640.813 Z" fill="#2d4051" fill-opacity="1" stroke="none"/>
</svg>
