<svg enable-background="new 0 0 491.5 491.5" viewBox="0 0 491.5 491.5" xmlns="http://www.w3.org/2000/svg"><path d="m492.2 350.9c-.4.3-1 .6-1.2 1-1.9 2.8-4.3 5-7 6.8-1.5 1.1-3.3 1.8-5.1 2.4-4.3 1.5-8.8 1.8-13.4 1.8-15.9-.1-31.8 0-47.7 0-1 0-1.9 0-3.1 0-.1 1.1-.1 2-.1 2.9v56.4c0 3.5-.6 7-2.2 9.9-2 3.8-4.7 7.1-8.4 9.6-3.6 2.5-7.7 3.4-11.8 4.1-2.8.5-5.7.5-8.6.5-19.4 0-38.9 0-58.3 0 0-.2 0-.4.1-.4 2.4-1.6 3.1-4.2 3.7-6.7.9 0 1.8-.1 2.6-.1h56.1c3.6 0 7.1-.5 10.2-2.2 6.2-3.4 9.4-8.6 9.4-15.8 0-78.2 0-156.4 0-234.6 0-.9-.1-1.8-.1-2.6 0-.9.1-1.8.1-2.6 0-8.5 0-17.1 0-25.6 0-3.6-.7-6.9-2.5-10-.2-2 .4-3.9 1.2-5.7.4-.9.9-1.7 2.1-1.6 4.2 4.3 6.3 9.7 6.4 15.6.2 11.6 0 23.2 0 34.7v6 147.2c0 1 .1 1.9.1 2.9v11c.5.1.9.1 1.3.1h54c3.1 0 6.3-.6 9-2.3 6-3.5 9.1-8.7 9.1-15.8 0-43.8 0-87.7 0-131.5 0-.9-.1-1.8-.1-2.6 0-.6.1-1.3.1-1.9 0-22.1 0-44.2 0-66.3 0-.6-.1-1.3-.1-1.9 0-.9.1-1.7.1-2.6 0-16 0-32 0-48 0-.9.1-1.7.1-2.6 1 .1 1.4-.6 1.6-1.3.3-.9.6-2 1-2.8.3-.6 1-1.1 1.5-1.6-.1 91.9-.1 184-.1 276.2z" fill="#f3f3f3"/><path d="m.2 143.5c.6-.5 1.3-.9 1.7-1.5 2.4-4.1 6-6.9 10-9 3.6-1.9 7.6-2.8 11.7-2.9 17.2-.1 34.4 0 51.6 0h3.1c.1-1.1.1-2 .1-3 0-17.8-.1-35.7 0-53.5 0-7.2 2-14 7.4-19.1 3.1-3 6.8-5.4 11.2-6.6 5-1.3 9.9-1.3 15-1.3h66c1 0 2.1 0 3.1.1-.2 1-.3 2-.6 3-.4 1.4-.9 2.7-1.3 4.1-1 0-1.9.1-2.9.1-23.6 0-47.2 0-70.8 0-3.4 0-6.8.6-9.7 2.2-6.8 3.6-10.1 9.3-10.1 17-.1 18.2 0 36.5 0 54.7 0 .7.1 1.4.1 2.3h11.1c1 0 2.1.1 3.1.1-.2.5-.4 1-.7 1.5-1 1.7-1.9 3.5-1.7 5.6-1 0-1.9.1-2.9.1-22.7 0-45.4 0-68.1 0-2.7 0-5.4.3-8.1.9-3.4.7-6 2.6-8.4 4.9-1.5 1.5-3 3.5-3.6 5.5-.9 2.7-1.4 5.6-1.4 8.4-.1 61.8 0 123.5 0 185.3 0 1-.1 1.9-.1 2.9-1 0-1.3.7-1.6 1.4s-.5 1.5-.9 2.2c-.3.6-.2 1.7-1.3 1.7 0-.8.1-1.6 0-2.3-.1-.4-.6-.7-.9-1.1-.1-68-.1-135.8-.1-203.7z" fill="#cbcbcb"/><path d="m492.2 74.4c-.5.5-1.1 1-1.5 1.6-.5.9-.7 1.9-1 2.8-.3.8-.6 1.4-1.6 1.3-.2-3.9-.5-7.7-.6-11.6s-2.1-6.9-4.7-9.4c-4-3.8-9-5.3-14.5-5.3-20.4 0-40.7 0-61.1 0-1 0-1.9-.1-2.9-.1.3-1 .6-1.9.9-2.9.4-1.4 1.3-2.7 1-4.3 21.1 0 42.2-.2 63.2.1 4.9.1 9.9 1.2 14.2 4.2 2.6 1.9 5.3 3.6 6.8 6.5.3.5 1.1.8 1.7 1.1.1 5.4.1 10.7.1 16z" fill="#e9e9e9"/><path d="m1.2 350.4c1.1 0 1-1.1 1.3-1.7.4-.7.6-1.4.9-2.2.3-.7.7-1.4 1.6-1.4 0 .9.1 1.8.1 2.6 0 3.8.1 7.5.1 11.3 0 .2-.1.5-.1.7v61.3c0 2.9.7 5.9 2.2 8.5 2.5 4.4 6.2 7.3 11.1 8.7-.8 2.1-1.6 4.2-2.4 6.3-2 0-3.8-.7-5.5-1.9-.4-.3-.9-.7-1.4-.9-3-1.7-5.2-4.1-7-6.9-.5-.7-.7-1.9-2-1.8 0-27.4 0-54.7 0-82.1.5-.2.8-.3 1.1-.5z" fill="#d1d1d1"/><path d="m1.2 350.4c-.3.2-.6.3-.9.5 0-1.3 0-2.6 0-3.8.3.4.8.7.9 1.1.1.7 0 1.4 0 2.2z" fill="#f1f1f1"/><path d="m179.3 53.7c.4-1.4.9-2.7 1.3-4.1.3-1 .4-2 .6-3 .6 0 1.3-.1 1.9-.1h73.2c.6 0 1.1 0 1.7.1-.2.8-.3 1.7-.5 2.5-.4 1.6-.9 3.1-1.4 4.7-.7 0-1.4.1-2.1.1-24.2 0-48.3 0-72.5 0-.8-.1-1.5-.1-2.2-.2z" fill="#d3d3d3"/><path d="m307 46.6h27.2 27c-.3 1.1-.7 2.2-1 3.3-.3 1.3-.6 2.5-1 3.8-.6 0-1.1.1-1.7.1-17 0-33.9 0-50.9 0-.6 0-1.1-.1-1.7-.1.3-1.2.7-2.4 1-3.5.5-1.2.8-2.4 1.1-3.6z" fill="#dfdfdf"/><path d="m307 46.6c-.3 1.2-.6 2.4-.9 3.6s-.7 2.4-1 3.5c-.6 0-1.1.1-1.7.1-15.2 0-30.4 0-45.6 0-.6 0-1.1-.1-1.7-.1.5-1.6.9-3.1 1.4-4.7.2-.8.4-1.6.5-2.5 4.6 0 9.2-.1 13.9-.1 11.6.2 23.3.2 35.1.2z" fill="#d9d9d9"/><path d="m359.3 53.8c.3-1.3.6-2.5 1-3.8.3-1.1.6-2.2 1-3.3h45.1c.3 1.6-.6 2.9-1 4.3-.3 1-.6 1.9-.9 2.9-.9 0-1.9.1-2.8.1-2.9.1-5.8.1-8.7.1-.9 0-1.7-.1-2.6-.1-8 0-16 0-24.1 0-2.4-.1-4.7-.2-7-.2z" fill="#e5e5e5"/><path d="m177.8 446.4c-21 0-41.9 0-62.9 0 .3-1.3.6-2.5 1-3.8.3-1.1.6-2.2.9-3.3.9 0 1.7-.1 2.6-.1h42.5c1 0 1.9-.1 2.9-.1s2 .1 3.1.1c3.9 0 7.9.1 11.8.1-.3 1.1-.7 2.2-1 3.3-.2 1.2-.5 2.5-.9 3.8z" fill="#dfdfdf"/><path d="m116.9 439.2c-.3 1.1-.6 2.2-.9 3.3-.3 1.3-.7 2.5-1 3.8-15.1 0-30.1 0-45.2 0-4 0-8 0-11.9-.1.4-1.4.8-2.8 1.2-4.2.3-1 .5-1.9.7-2.9.6 0 1.1-.1 1.7-.1h53.8c.5.1 1 .2 1.6.2z" fill="#d9d9d9"/><path d="m177.8 446.4c.3-1.3.6-2.5 1-3.8.3-1.1.6-2.2 1-3.3.6 0 1.1-.1 1.7-.1h53.3c.6 0 1.1.1 1.7.1-.4 1.4-.8 2.8-1.2 4.3-.3 1-.5 1.9-.8 2.9-18.9-.1-37.8-.1-56.7-.1z" fill="#e7e7e7"/><path d="m234.5 446.4c.3-1 .5-1.9.8-2.9.4-1.4.8-2.8 1.2-4.3.6 0 1.1-.1 1.7-.1h50c.6 0 1.1.1 1.7.1-.4 1.4-.7 2.7-1.1 4.1-.4 1.2-1.2 1.7-2.5 1.7-2.1-.1-4.3 0-6.4 0-1 0-2.1.1-2.4 1.4-14.5 0-28.8 0-43 0z" fill="#ececec"/><path d="m59.8 439.2c-.2 1-.5 1.9-.7 2.9-.4 1.4-.8 2.8-1.2 4.2-11.2 0-22.5.1-33.7 0-2.7 0-5.6-.3-8-1.8.8-2.1 1.6-4.2 2.4-6.3 3.5.8 7.1.8 10.7.8h27c1.1.1 2.3.2 3.5.2z" fill="#d3d3d3"/><path d="m277.2 446.4c.3-1.3 1.4-1.4 2.4-1.4 2.1 0 4.3-.1 6.4 0 1.3.1 2.1-.5 2.5-1.7.4-1.4.7-2.7 1.1-4.1.6 0 1.1-.1 1.7-.1h36c.6 0 1.1.1 1.7.1-.7 2.6-1.4 5.1-3.7 6.7-.1.1-.1.3-.1.4-16 .1-32 .1-48 .1z" fill="#f1f1f1"/><path d="m414.7 344.6c0-1-.1-1.9-.1-2.9 0-49.1 0-98.1 0-147.2 1.1 0 2.2-.1 3.4-.2v9.8 9.6 9.8c0 3.2-.1 6.3.1 9.5h4.7c0-17.4 0-34.7 0-52.1-1.3 0-2.5 0-3.6 0-.6 1.7-1 3.3-1.7 4.8-.6 1.2-1.1 2.7-2.9 2.8 0-11.6.2-23.2 0-34.7-.1-5.9-2.2-11.2-6.4-15.6-.2-.3-.3-.6-.6-.8-5.5-4.8-11.8-7.5-19.1-7.5-22.8 0-45.7 0-68.5 0-.6 0-1.3.1-1.9.1s-1.2-.1-1.8-.1c.2-.8.3-1.6.6-2.3 7.4-19.2 14.8-38.4 22.2-57.5.6-1.6 1.1-3.3 1.7-5h19.9 39.1 3.1 66.2c5.4 0 8 2.6 8 8v67.8 32.5 38.5 16.1 109.6c0 2-.6 3.6-2.1 4.8-1.6 1.3-3.4 2-5.5 2-18.4.2-36.6.2-54.8.2z" fill="#191919"/><path d="m329 439.2c-.6 0-1.1-.1-1.7-.1-12 0-24 0-36 0-.6 0-1.1.1-1.7.1s-1.1-.1-1.7-.1c-16.7 0-33.3 0-50 0-.6 0-1.1.1-1.7.1s-1.1-.1-1.7-.1c-17.8 0-35.5 0-53.3 0-.6 0-1.1.1-1.7.1-3.9 0-7.9-.1-11.8-.1-1 0-2-.1-3.1-.1-.3-1.4.8-1.9 1.7-2.6 2.8-2.2 5.6-4.3 8.4-6.6.5-.4.7-1.3 1-2 1 0 2.1-.1 3.1-.1h59 150.2c5.5 0 8-2.5 8-8 0-47.4 0-94.8 0-142.3 0-28.5 0-56.9 0-85.4 1.6-.1 2.4-1.4 3.5-2.2 2.3-1.8 5-3.1 6.6-5.6.1-.2.6-.2.9-.3 0 .9.1 1.8.1 2.6v234.6c0 7.2-3.2 12.4-9.4 15.8-3.1 1.7-6.6 2.2-10.2 2.2-18.7 0-37.4 0-56.1 0-.6 0-1.5.1-2.4.1z" fill="#4c4c4c"/><path d="m414.7 344.6h54.7c2.1 0 3.9-.6 5.5-2 1.5-1.3 2.1-2.8 2.1-4.8 0-36.5 0-73 0-109.6 0-5.4 0-10.7 0-16.1.4-.2.9-.3 1.2-.6 1-.9 2-1.9 3.1-2.9.7-.6 1.5-1.2 2.2-1.8 1.5-1.1 3-2.2 4.5-3.3 0 .9.1 1.8.1 2.6v131.5c0 7.1-3.1 12.3-9.1 15.8-2.7 1.6-5.9 2.2-9 2.3-18 .1-36 0-54 0-.4 0-.8-.1-1.3-.1 0-3.7 0-7.4 0-11z" fill="#4e4e4e"/><path d="m407.3 183.8c-.3.1-.7.1-.9.3-1.6 2.6-4.3 3.8-6.6 5.6-1.1.9-2 2.1-3.5 2.2 0-.9 0-1.8 0-2.6 0-11.4 0-22.7 0-34.1 0-3.1-1.5-5.4-4.5-6.3-1.3-.4-2.7-.6-4-.6-42.6 0-85.2 0-127.9 0-.3 0-.6 0-.9 0-.7-1.7-2.2-1.9-3.7-1.9-4.4 0-8.8 0-13.2 0-.6 0-1.1-.2-2.2-.3 2.6-2 4.6-3.7 6.8-5.2 1.8-1.3 1.8-1.3 1.2-3.5 7.5 0 14.9-.1 22.4-.1 2.9 0 5.9-.1 8.8-.1.9 0 1.7.1 2.6.1h31.5c1 0 1.9-.1 2.9-.1.9 0 1.8.1 2.6.1h68.8c5 0 9.7 1 13.6 4.4 1.4 1.2 2.5 2.6 3.8 3.9 1.8 3.1 2.5 6.5 2.5 10v25.6c-.1.9-.1 1.8-.1 2.6z" fill="#3e3e3e"/><path d="m476.9 141.1c0-22.6 0-45.2 0-67.8 0-5.4-2.6-8-8-8-22.1 0-44.1 0-66.2 0-1 0-2.1 0-3.1 0-.2-1.5-1.3-1.4-2.3-1.4-4 0-8 0-12 0-.6 0-1.2-.1-2.2-.3.7-.8 1.1-1.4 1.6-1.8 2.3-1.8 4.6-3.7 7-5.4.9-.7 1.3-1.3 1.2-2.4 2.9 0 5.8-.1 8.7-.1.9 0 1.9-.1 2.8-.1 1 0 1.9.1 2.9.1h61.1c5.5 0 10.5 1.5 14.5 5.3 2.6 2.5 4.6 5.5 4.7 9.4s.4 7.7.6 11.6c0 .9-.1 1.7-.1 2.6v48c0 .9-.1 1.7-.1 2.6-.4.2-.9.3-1.3.6-2.5 2-5 4.1-7.6 6.1-.7.5-1.5.7-2.2 1z" fill="#454545"/><path d="m476.9 141.1c.7-.3 1.5-.5 2.1-1 2.6-2 5.1-4.1 7.6-6.1.4-.3.8-.4 1.3-.6 0 .6.1 1.3.1 1.9v66.3c0 .6-.1 1.3-.1 1.9-1.5 1.1-3 2.2-4.5 3.3-.8.6-1.5 1.1-2.2 1.8-1 .9-2 2-3.1 2.9-.3.3-.8.4-1.2.6 0-12.8 0-25.7 0-38.5 0-10.8 0-21.6 0-32.5z" fill="#484848"/><path d="m404.8 145.5c-1.3-1.3-2.4-2.7-3.8-3.9-3.9-3.4-8.6-4.4-13.6-4.4-22.9 0-45.8 0-68.8 0-.9 0-1.8-.1-2.6-.1.2-1 .3-2 .6-3 .4-1.4.9-2.7 1.3-4 .6 0 1.3-.1 1.9-.1h68.5c7.4 0 13.7 2.7 19.1 7.5.2.2.4.5.6.8-1.2-.1-1.7.6-2.1 1.6-.6 1.8-1.3 3.6-1.1 5.6z" fill="#e7e7e7"/><path d="m414.5 188.6c1.8-.1 2.3-1.6 2.9-2.8.7-1.5 1.1-3.1 1.7-4.8h3.6v52.1c-1.5 0-2.9 0-4.7 0-.1-3.1 0-6.3-.1-9.5 0-3.3 0-6.6 0-9.8s0-6.4 0-9.6 0-6.4 0-9.8c-1.3.1-2.4.1-3.4.2 0-2.1 0-4 0-6z" fill="#d3d3d3"/><path d="m340.7 65.3c-.6 1.7-1.1 3.3-1.7 5-7.4 19.2-14.8 38.4-22.2 57.5-.3.7-.4 1.5-.6 2.3-11.5 0-23.1 0-34.6.1-18.4 0-36.8 0-55.2 0-19.4 0-38.7 0-58.1 0-22.7 0-45.4 0-68.2 0-1 0-2.1-.1-3.1-.1 0-1 .1-2.1.1-3.1 0-18 .1-36 0-54 0-3.6 2.1-6.5 5.8-7.4.9-.2 1.9-.2 2.9-.2h70.8c54.6-.1 109.4-.1 164.1-.1zm-205 27.2c.4-5.6-4.1-13-12.5-13-7.9-.1-12.9 6.1-12.9 13 0 8.5 7.1 12.9 12.7 12.9 7.1 0 13.1-6.5 12.7-12.9zm28.3 12.7c7.1 0 12.9-5.7 12.7-12.8-.2-7.2-5.2-13-12.9-12.9-8.4.1-12.6 7.2-12.6 13 .1 6.8 6 13.1 12.8 12.7zm40.9.1c7.1 0 12.7-5.7 12.7-12.8s-5.7-12.9-12.6-13c-7.1-.1-12.8 5.8-12.8 13 0 7.1 5.6 12.8 12.7 12.8z" fill="#bfbfbf"/><path d="m247.9 137.3c.6 2.2.5 2.2-1.2 3.5-2.2 1.6-4.2 3.3-6.8 5.2 1.1.2 1.6.3 2.2.3h13.2c1.5 0 3 .2 3.7 1.9-1.6 0-3.2.1-4.8.1-76 0-152.1 0-228.1 0-.8 0-1.6 0-2.4 0-4.1.3-7.6 3.4-7.2 7.6.1.6 0 1.3 0 1.9v187.4c0 2.8-.1 5.6-.2 8.4-.7-.3-1.4-.6-2.3-.9-1.9 1.5-3.7 3.1-5.7 4.5-.9.7-2 1.1-3.1 1.6 0-3.8-.1-7.5-.1-11.3 0-.9-.1-1.8-.1-2.6 0-1 .1-1.9.1-2.9 0-61.8 0-123.5 0-185.3 0-2.8.5-5.8 1.4-8.4.7-2 2.1-4 3.6-5.5 2.3-2.3 5-4.2 8.4-4.9 2.7-.6 5.3-.9 8.1-.9h68.1c1 0 1.9-.1 2.9-.1.6 0 1.3.1 1.9.1h64.3c.6 0 1.3-.1 1.9-.1s1.3.1 1.9.1h54.3c.6 0 1.3-.1 1.9-.1 1.3 0 2.7.1 4 .1 6.8.3 13.5.3 20.1.3z" fill="#363636"/><path d="m340.7 65.3c-54.7 0-109.4 0-164.1 0-23.6 0-47.2 0-70.8 0-1 0-1.9-.1-2.9.2-3.7.9-5.9 3.8-5.8 7.4.1 18 0 36 0 54 0 1-.1 2.1-.1 3.1-3.7 0-7.3 0-11.1 0 0-.9-.1-1.6-.1-2.3 0-18.2 0-36.5 0-54.7 0-7.6 3.4-13.4 10.1-17 3-1.6 6.3-2.2 9.7-2.2h70.8c1 0 1.9-.1 2.9-.1.7 0 1.4.1 2.1.1h72.5c.7 0 1.4-.1 2.1-.1.6 0 1.1.1 1.7.1h45.6c.6 0 1.1-.1 1.7-.1s1.1.1 1.7.1h50.9c.6 0 1.1-.1 1.7-.1 2.3 0 4.6.1 6.9.1h24.1c.9 0 1.7.1 2.6.1.1 1-.3 1.7-1.2 2.4-2.4 1.7-4.7 3.6-7 5.4-.5.4-.9 1-1.6 1.8 1 .1 1.6.3 2.2.3h12c1.1 0 2.2-.1 2.3 1.4-13 0-26 0-39.1 0-6.6.1-13.2.1-19.8.1z" fill="#383838"/><path d="m165.8 137.1c-.6 0-1.3.1-1.9.1-21.4 0-42.9 0-64.3 0-.6 0-1.3-.1-1.9-.1-.2-2.1.7-3.8 1.7-5.6.3-.5.5-1 .7-1.5h68.2c-.1.4-.3.7-.4 1.1-.7 2.1-1.4 4-2.1 6z" fill="#d3d3d3"/><path d="m5.2 359c1-.5 2.2-.9 3.1-1.6 2-1.4 3.8-3 5.7-4.5.8.3 1.5.6 2.3.9.1 5.4.2 10.9.2 16.3 0 16.8.1 33.6-.1 50.4 0 3.4 2.7 7.2 7.1 7.3h1.7 124.8c.9 0 1.7-.1 2.6-.2 1.2 0 2.4.1 3.6.1 6.6 0 13.2.1 19.8.1-.3.7-.5 1.6-1 2-2.7 2.3-5.6 4.4-8.4 6.6-.8.7-2 1.2-1.7 2.6-1 0-1.9.1-2.9.1-14.2 0-28.3 0-42.5 0-.9 0-1.7.1-2.6.1-.6 0-1.1-.1-1.7-.1-17.9 0-35.9 0-53.8 0-.6 0-1.1.1-1.7.1-1.2 0-2.4-.1-3.6-.1-9 0-18 0-27 0-3.6 0-7.2 0-10.7-.8-4.9-1.4-8.6-4.4-11.1-8.7-1.5-2.6-2.2-5.6-2.2-8.5-.1-20.4-.1-40.9 0-61.3 0-.3.1-.5.1-.8z" fill="#444"/><path d="m281.5 130.1c11.5 0 23.1 0 34.6-.1.6 0 1.2.1 1.8.1-.4 1.3-.9 2.7-1.3 4-.3 1-.4 2-.6 3-1 0-1.9.1-2.9.1-10.5 0-21 0-31.5 0-.9 0-1.7-.1-2.6-.1.2-1 .3-2 .6-3 .6-1.3 1.3-2.7 1.9-4z" fill="#e5e5e5"/><path d="m175.9 427.8c-6.6 0-13.2 0-19.8-.1-1.2 0-2.4-.1-3.6-.1.2-.6.4-1.2.7-1.8 10.7-27.7 21.4-55.4 32.1-83.2 4-10.4 8.1-20.8 12.2-31.3.5-1.3 1.1-2.6 1.6-3.9.9-2.5 1.9-5 2.8-7.5 1.5-4 3.1-8.1 4.6-12.1.9-2.4 1.7-4.7 2.6-7.1.1.5.4 1.1.4 1.6-.1 4-.4 8-.4 12 .1 4.7.9 9.2 2.9 13.5 2 4.1 4.9 7.4 9.4 8.7 8.5 2.5 17.5.4 21.7-10.1.5-1.2.9-2.4 1.1-3.7 1.6-7.1 1.7-14.3.6-21.5-.5-3.4-1.5-6.5-3.1-9.5-5.8-11-20.4-10-26-4.1-.4.4-1 .8-1.4 1.2.2-1 .3-2.1.7-3.1 7.6-19.9 15.3-39.8 23-59.7 7.1-18.4 14.2-36.8 21.3-55.2.3-.8.3-1.7.5-2.5h127.9c1.3 0 2.7.2 4 .6 3 .9 4.5 3.2 4.5 6.3v34.1 2.6 85.4 142.3c0 5.5-2.5 8-8 8-50.1 0-100.1 0-150.2 0-19.7 0-39.3 0-59 0-1 .1-2 .2-3.1.2zm99-137.6h.4c0 1.8-.1 3.5 0 5.3.3 4.7 1.1 9.2 3.4 13.4 3.1 5.6 7.9 8.4 14.3 8.5 6.6.1 11.7-2.4 14.9-8.2 1.1-1.9 1.9-4.1 2.4-6.2 1.7-7.2 1.8-14.4.7-21.7-.5-3.4-1.4-6.6-3.1-9.5-1.9-3.4-4.6-6.2-8.5-7.4-8.8-2.7-17.6-.2-21.7 9.7-.7 1.6-1.3 3.3-1.5 5-.5 3.7-.9 7.4-1.3 11.1zm67.2 26.1c0-17.4 0-34.7 0-52.1-1.3 0-2.5 0-3.7 0-.3 1.1-.5 2.2-.9 3.3-1.1 3.4-3.4 5.5-7 6.1-1.5.3-3 .3-4.5.5-.8.1-1.5.1-2.4.2v3.3h13.7v7.8 7.7 7.9 7.7c0 2.5-.1 5 0 7.6zm-78.6-29.4c0-2.7 0-5.2 0-7.8-2.1 0-4 0-6.1 0v7.8zm-6.1 21.7v7.6h6.1c0-2.6 0-5.1 0-7.6-2.1 0-4.1 0-6.1 0z" fill="#191919"/><path d="m259.8 148.3c-.2.8-.2 1.7-.5 2.5-7.1 18.4-14.2 36.8-21.3 55.2-7.7 19.9-15.4 39.8-23 59.7-.4 1-.5 2.1-.7 3.1-.3.2-.5.3-.8.5-.9 2.1-2 4.1-2.6 6.3-.5 1.8-1 3.5-1.9 5.2-.9 2.4-1.7 4.7-2.6 7.1-1.5 4-3.1 8.1-4.6 12.1-.1-.5-.3-1-.3-1.5.1-4.5.4-9.1.2-13.6-.2-4.6-1.2-9-3.4-13.1-5.1-9.2-17.7-11.4-25.6-4.4-2.7 2.4-4.4 5.5-5.4 8.9-2.2 7.7-2.3 15.4-1.2 23.3.5 3.4 1.4 6.6 3 9.5 5.3 9.6 18.7 11.5 26.5 3.8.5-.5 1.2-.9 1.9-1.4-4.1 10.4-8.1 20.8-12.2 31.3-10.7 27.7-21.4 55.4-32.1 83.2-.2.6-.4 1.2-.7 1.8-.9.1-1.7.2-2.6.2-41.6 0-83.2 0-124.8 0-.6 0-1.1 0-1.7 0-4.3-.1-7.1-3.9-7.1-7.3.1-16.8.1-33.6.1-50.4 0-5.4-.1-10.9-.2-16.3.1-2.8.2-5.6.2-8.4 0-62.5 0-124.9 0-187.4 0-.6.1-1.3 0-1.9-.4-4.3 3.1-7.4 7.2-7.6.8-.1 1.6 0 2.4 0h228.1c1.6 0 3.2-.1 4.8-.1.4-.3.6-.3.9-.3zm-124.2 140.9c-.1-1.6-.3-4.5-.6-7.3-.4-3.6-1.5-7-3.2-10.2-5.9-11.1-23.1-11-28.8-.3-1.2 2.3-2.2 4.8-2.8 7.3-1.4 6-1.4 12.2-.9 18.4.4 4.2 1.3 8.4 3.4 12.1 5.1 9.1 18 11.2 25.7 4.2 3-2.7 4.7-6.2 5.7-10.1 1.1-4.2 1.4-8.5 1.5-14.1zm-43.7 1.3c0-1.8.1-3.7 0-5.5-.3-4.5-1.2-8.8-3.3-12.9-5.7-11.3-21.5-10.9-27.5-3-2.3 3.1-3.8 6.5-4.5 10.2-1.3 6.6-1.4 13.3-.4 20 .5 3.3 1.5 6.5 3 9.5 5.5 11 22 11.1 28 2.2 1.2-1.8 2.2-3.7 2.9-5.7 1.7-4.7 1.9-9.8 1.8-14.8zm19.7-114.9c0 7.2 5.6 13 12.6 13 7.1 0 12.9-5.8 12.9-13 0-7.1-5.7-12.9-12.7-12.9-7.2 0-12.8 5.7-12.8 12.9zm-56.5.2c.4-6.4-5.1-13-12.5-13.1-7 0-12.9 5.6-13 12.7 0 8.3 6.6 13.2 12.7 13.2 7.3.1 13-6.2 12.8-12.8zm15.6-.2c-.3 7.1 5.9 13 12.6 13 6.2 0 12.9-4.9 12.8-13.1-.1-8.1-6.7-12.9-12.8-12.8-7.1.1-12.6 5.7-12.6 12.9zm82.9 103.5c-2.2 0-4.2 0-6.2 0v7.8c2.2.2 4.2.3 6.2-.1 0-2.6 0-5.1 0-7.7zm0 37.2c0-2.7 0-5.1 0-7.6-2.1 0-4.1 0-6.2 0 0 2.6-.2 5.1.1 7.6z" fill="#bfbfbf"/><path d="m281.5 130.1c-.6 1.4-1.3 2.7-1.8 4.1-.3.9-.4 2-.6 3-2.9 0-5.9.1-8.8.1-7.5 0-14.9.1-22.4.1-6.7 0-13.3-.1-20-.1-1.3 0-2.7-.1-4-.1.2-1 .3-2 .6-3 .5-1.4 1.2-2.7 1.8-4.1z" fill="#dfdfdf"/><path d="m135.7 92.5c.4 6.5-5.6 12.9-12.7 12.8-5.6 0-12.7-4.4-12.7-12.9 0-6.9 5-13 12.9-13 8.4.1 12.9 7.4 12.5 13.1z" fill="#f34437"/><path d="m164 105.2c-6.8.3-12.7-5.9-12.8-12.8 0-5.8 4.2-12.9 12.6-13 7.7-.1 12.8 5.8 12.9 12.9.2 7.2-5.6 12.9-12.7 12.9z" fill="#fec109"/><path d="m204.9 105.3c-7.1 0-12.7-5.6-12.7-12.8 0-7.3 5.8-13.1 12.8-13s12.7 6 12.6 13c0 7-5.6 12.7-12.7 12.8z" fill="#1cbb32"/><path d="m226.3 130.1c-.6 1.4-1.3 2.7-1.8 4.1-.3.9-.4 2-.6 3-.6 0-1.3.1-1.9.1-18.1 0-36.2 0-54.3 0-.6 0-1.3-.1-1.9-.1.7-2 1.3-4 2-5.9.1-.4.3-.7.4-1.1 19.4-.1 38.8-.1 58.1-.1z" fill="#d9d9d9"/><path d="m209 280.7c.9-1.6 1.4-3.4 1.9-5.2.7-2.1 1.7-4.2 2.6-6.3.3-.2.5-.3.8-.5.5-.4 1-.7 1.4-1.2 5.6-5.9 20.2-6.9 26 4.1 1.6 3 2.6 6.2 3.1 9.5 1 7.2 1 14.3-.6 21.5-.3 1.2-.7 2.5-1.1 3.7-4.1 10.5-13.2 12.6-21.7 10.1-4.5-1.3-7.4-4.6-9.4-8.7-2-4.3-2.8-8.8-2.9-13.5-.1-4 .3-8 .4-12-.1-.4-.3-.9-.5-1.5zm4.7 10.3c.1 1.3.1 3.2.3 5.1.4 4.3 1.3 8.5 3.6 12.3 4.2 6.8 15.3 7 19.4-.2 1.2-2.2 2.2-4.6 2.8-7.1 1.4-6.5 1.4-13.2.3-19.8-.4-2.9-1.3-5.6-2.8-8.1-4.3-7.6-15.6-7.6-19.8-.4-.8 1.4-1.6 3-2.1 4.5-1.5 4.3-1.6 8.7-1.7 13.7z" fill="#d3d3d3"/><path d="m274.9 290.2c.4-3.7.8-7.5 1.4-11.2.3-1.7.9-3.4 1.5-5 4.1-9.8 13-12.3 21.7-9.7 3.9 1.2 6.5 3.9 8.5 7.4 1.7 3 2.6 6.2 3.1 9.5 1 7.3 1 14.5-.7 21.7-.5 2.1-1.4 4.3-2.4 6.2-3.2 5.8-8.3 8.4-14.9 8.2-6.4-.1-11.2-2.9-14.3-8.5-2.3-4.1-3.1-8.7-3.4-13.4-.1-1.8 0-3.5 0-5.3-.2.1-.4.1-.5.1zm5 .9c.1 1.4.1 3.3.3 5.2.3 3.5.9 7 2.5 10.2 2.2 4.4 5.6 7 10.8 7s8.6-2.6 10.7-7c.8-1.8 1.5-3.7 1.9-5.7 1.3-6.3 1.3-12.7.3-19.1-.5-3.1-1.4-6-3-8.8-4.2-7.2-15.4-7.3-19.6-.2-.8 1.4-1.6 3-2.1 4.5-1.6 4.4-1.7 8.9-1.8 13.9z" fill="#d3d3d3"/><path d="m197.5 311.4c-.6.5-1.3.9-1.9 1.4-7.8 7.7-21.2 5.8-26.5-3.8-1.6-3-2.5-6.2-3-9.5-1.1-7.8-1-15.6 1.2-23.3 1-3.4 2.7-6.5 5.4-8.9 7.9-6.9 20.5-4.7 25.6 4.4 2.3 4.1 3.3 8.5 3.4 13.1.2 4.5-.2 9.1-.2 13.6 0 .5.2 1 .3 1.5-.9 2.5-1.8 5-2.8 7.5-.5 1.4-1 2.7-1.5 4zm-.1-20.7c-.3-3-.4-6.1-.8-9.1-.6-4.3-1.9-8.3-5.2-11.3-4.1-3.8-11.3-3.7-15.3.1-2.2 2-3.6 4.6-4.3 7.4-2.1 8.4-2.1 16.8-.1 25.2.7 2.8 2 5.4 4.1 7.5 4.3 4.2 11.8 4.2 16-.1 1.8-1.9 3-4.1 3.8-6.6 1.3-4.3 1.6-8.7 1.8-13.1z" fill="#383838"/><path d="m342.1 316.3c-1.5 0-2.9 0-4.7 0-.1-2.5 0-5.1 0-7.6 0-2.6 0-5.1 0-7.7s0-5.3 0-7.9 0-5.1 0-7.7c0-2.5 0-5.1 0-7.8-4.7 0-9.1 0-13.7 0 0-1.2 0-2.2 0-3.3.8-.1 1.6-.1 2.4-.2 1.5-.1 3-.2 4.5-.5 3.6-.6 5.9-2.7 7-6.1.3-1 .6-2.1.9-3.3h3.7c-.1 17.4-.1 34.7-.1 52.1z" fill="#d3d3d3"/><path d="m263.5 286.9c-2.1 0-4 0-6.1 0 0-2.6 0-5.2 0-7.8h6.1z" fill="#cbcbcb"/><path d="m257.4 308.6h6.1v7.6c-2 0-4 0-6.1 0 0-2.4 0-4.9 0-7.6z" fill="#cbcbcb"/><path d="m135.6 289.2c-.1 5.6-.4 9.9-1.5 14.1-1 3.9-2.7 7.4-5.7 10.1-7.7 7-20.6 4.8-25.7-4.2-2.1-3.8-3.1-7.9-3.4-12.1-.5-6.2-.6-12.3.9-18.4.6-2.5 1.6-5 2.8-7.3 5.7-10.7 22.9-10.8 28.8.3 1.7 3.2 2.8 6.6 3.2 10.2.3 2.8.5 5.7.6 7.3zm-32 1.2c.3 2.9.4 5.9.8 8.8.4 3.3 1.5 6.3 3.2 9.2 4.1 6.7 14.9 6.8 19.1.2 1.5-2.4 2.5-5 3.1-7.7 1.2-6.3 1.2-12.6.3-18.9-.5-3.5-1.6-6.8-3.6-9.8-4.1-6.1-14-6-18-.9-1.5 1.9-2.6 3.9-3.3 6.1-1.2 4.2-1.4 8.6-1.6 13z" fill="#383838"/><path d="m91.9 290.5c.2 5-.1 10.1-1.9 14.9-.7 2-1.7 4-2.9 5.7-6 8.9-22.5 8.8-28-2.2-1.5-3-2.5-6.2-3-9.5-1-6.7-.9-13.4.4-20 .7-3.7 2.2-7.1 4.5-10.2 6-7.9 21.8-8.3 27.5 3 2.1 4.1 2.9 8.4 3.3 12.9.2 1.7.1 3.5.1 5.4zm-4.5.1c-.3-3-.4-6.1-.8-9.1-.6-4-1.8-7.8-4.7-10.8-4.2-4.3-11.8-4.4-16-.1-2.1 2.1-3.4 4.6-4.1 7.5-2 7.9-2 15.8-.3 23.8.7 3.2 2 6.2 4.4 8.6 4.3 4.2 11.8 4.1 16-.2 1.8-1.8 2.9-4 3.7-6.4 1.4-4.3 1.7-8.8 1.8-13.3z" fill="#383838"/><path d="m111.6 175.6c0-7.2 5.6-12.9 12.7-12.9 7 0 12.7 5.8 12.7 12.9 0 7.2-5.8 13.1-12.9 13-7 0-12.6-5.8-12.5-13z" fill="#1cbb32"/><path d="m55.1 175.8c.3 6.6-5.5 12.9-12.7 12.8-6.1 0-12.7-4.9-12.7-13.2 0-7.1 5.9-12.7 13-12.7 7.3.1 12.7 6.7 12.4 13.1z" fill="#f34437"/><path d="m70.7 175.6c0-7.2 5.5-12.8 12.6-12.9 6.1-.1 12.7 4.8 12.8 12.8.1 8.2-6.7 13.1-12.8 13.1-6.7 0-12.9-5.8-12.6-13z" fill="#fec109"/><path d="m153.6 279.1v7.6c-2 .4-4 .3-6.2.1 0-2.6 0-5.1 0-7.8 2.1.1 4 .1 6.2.1z" fill="#3e3e3e"/><path d="m153.6 316.3c-2 0-3.9 0-6.1 0-.2-2.5-.1-5-.1-7.6h6.2z" fill="#383838"/><path d="m214.4 268.8c-.3.2-.5.3-.8.5.2-.2.5-.3.8-.5z" fill="#191919"/><path d="m213.7 291c.1-5 .2-9.4 1.7-13.6.5-1.6 1.3-3.1 2.1-4.5 4.2-7.1 15.5-7.2 19.8.4 1.4 2.5 2.3 5.3 2.8 8.1 1 6.6 1.1 13.3-.3 19.8-.5 2.5-1.5 4.9-2.8 7.1-4.1 7.2-15.2 7-19.4.2-2.3-3.8-3.2-8-3.6-12.3-.3-2-.3-3.9-.3-5.2z" fill="#1b1b1b"/><path d="m279.9 291.1c.1-5 .2-9.5 1.7-13.8.5-1.6 1.2-3.1 2.1-4.5 4.3-7.2 15.4-7.1 19.6.2 1.6 2.7 2.5 5.7 3 8.8.9 6.4 1 12.7-.3 19.1-.4 1.9-1 3.9-1.9 5.7-2.1 4.5-5.5 7-10.7 7s-8.6-2.6-10.8-7c-1.6-3.2-2.2-6.7-2.5-10.2-.1-2-.1-3.9-.2-5.3z" fill="#1b1b1b"/><g fill="#bebebe"><path d="m197.4 290.7c-.2 4.4-.4 8.8-1.8 13-.8 2.5-1.9 4.7-3.8 6.6-4.2 4.3-11.8 4.3-16 .1-2.1-2.1-3.4-4.6-4.1-7.5-2-8.4-2-16.8.1-25.2.7-2.8 2.1-5.3 4.3-7.4 4-3.8 11.3-3.8 15.3-.1 3.3 3.1 4.6 7.1 5.2 11.3.4 3.1.5 6.2.8 9.2z"/><path d="m103.6 290.4c.2-4.4.4-8.8 1.8-13.1.7-2.2 1.8-4.2 3.3-6.1 4-5.1 13.9-5.2 18 .9 2 3 3.1 6.3 3.6 9.8.9 6.3.9 12.6-.3 18.9-.5 2.8-1.5 5.3-3.1 7.7-4.2 6.6-15 6.6-19.1-.2-1.8-2.9-2.8-5.9-3.2-9.2-.6-2.8-.7-5.7-1-8.7z"/><path d="m87.4 290.6c-.2 4.5-.5 9-1.8 13.3-.8 2.4-1.9 4.6-3.7 6.4-4.2 4.3-11.7 4.4-16 .2-2.4-2.4-3.8-5.4-4.4-8.6-1.7-7.9-1.7-15.9.3-23.8.7-2.8 2-5.4 4.1-7.5 4.3-4.2 11.8-4.1 16 .1 2.9 3 4.2 6.8 4.7 10.8.5 3 .6 6.1.8 9.1z"/></g></svg>